<svg xmlns="http://www.w3.org/2000/svg" xmlns:xlink="http://www.w3.org/1999/xlink" width="136.342" height="48" viewBox="0 0 136.342 48">
  <defs>
    <clipPath id="clip-path">
      <rect id="Rectangle_811" data-name="Rectangle 811" width="28" height="28" fill="none"/>
    </clipPath>
  </defs>
  <g id="atticus_color" transform="translate(17375 8527)">
    <rect id="Rectangle_7077" data-name="Rectangle 7077" width="136.342" height="48" transform="translate(-17375 -8527)" fill="#fff" opacity="0"/>
    <g id="Group_13597" data-name="Group 13597" transform="translate(-17367 -8517)">
      <g id="atticus-logo-white-red" transform="translate(33.219 3.696)">
        <g id="Group_447" data-name="Group 447" transform="translate(0 0)">
          <path id="Path_754" data-name="Path 754" d="M175.063,25.613h-.157l-.346.039a.346.346,0,0,0-.192.039.387.387,0,0,0-.111.039c-.076.039-.111.039-.192.076-.039.039-.076.039-.154.039-.039-.039-.111-.076-.154-.111a.84.84,0,0,1-.111-.192v-.154a.289.289,0,0,0-.039-.154c0-.076-.039-.192-.039-.269s-.039-.192-.039-.269V23.66q0-1.785.111-3.568c.076-1.189.111-2.418.111-3.647a.747.747,0,0,0-.039-.307,1.121,1.121,0,0,0-.076-.346c-.039-.111-.039-.23-.076-.346a1.511,1.511,0,0,1-.076-.23.63.63,0,0,0-.383-.383,1.062,1.062,0,0,0-.345-.039h-.652a1.436,1.436,0,0,1-.383-.039,1.062,1.062,0,0,1-.345-.039h-.228a2.264,2.264,0,0,1-.537-.076,3.511,3.511,0,0,0-.652-.039c-.154,0-.345.039-.5.039-.11.039-.269.039-.383.076h-.422a.653.653,0,0,0-.269.039h-.345l-.111.23a.529.529,0,0,0-.111.154l-.076.111v.192a.847.847,0,0,0,.23.576,2.691,2.691,0,0,0,.383.307,1.871,1.871,0,0,0,.422.154,1.379,1.379,0,0,0,.422.076h.691l.23.039h.076a.291.291,0,0,1,.154.076h.039v3.377a3.093,3.093,0,0,0,.039.614c0,.192.039.346.039.537a4.421,4.421,0,0,0,.076.614v1.611a4.234,4.234,0,0,1-.076.691,2,2,0,0,1-.23.614,3.666,3.666,0,0,1-.461.614,1.379,1.379,0,0,1-.383.269,1.927,1.927,0,0,1-.5.192c-.192.039-.383.076-.537.111a2.359,2.359,0,0,1-.537.039,2.4,2.4,0,0,1-1.037-.23,1.482,1.482,0,0,1-.614-.576,3.278,3.278,0,0,1-.345-.92,6.244,6.244,0,0,1-.111-1.189,1.3,1.3,0,0,1,.039-.383,3.009,3.009,0,0,0,.076-.537,8.075,8.075,0,0,0-.076-.959,5.721,5.721,0,0,1-.076-.806,18.756,18.756,0,0,1,.111-2.072,19.62,19.62,0,0,0,.111-2.149v-.614l-.076-.111a1.446,1.446,0,0,0-.614-.461,2.329,2.329,0,0,0-.691-.192h-.076a.14.14,0,0,0-.111.039h-.076a.57.57,0,0,0-.23.039h-.076a.141.141,0,0,0-.111.039c-.076,0-.154.039-.23.039l-.268.039h-.884a.29.29,0,0,0-.154.039h-1.321l-.076.039c-.076.039-.192.076-.269.111a1.034,1.034,0,0,0-.307.269c-.039.039-.076.111-.111.154l-.111.23v.076a1.062,1.062,0,0,0,.039.346.58.58,0,0,0,.422.461,1.9,1.9,0,0,0,.5.154,2.827,2.827,0,0,1,.537.154,4.312,4.312,0,0,1,.5.192.038.038,0,0,1,.039.039.2.2,0,0,0,.076.154c.039.039.039.111.076.154a1.6,1.6,0,0,1,.076.23v1.037a.844.844,0,0,0,.039.307v.192a.653.653,0,0,0,.039.269v3.07A5.607,5.607,0,0,0,162.56,24a1.915,1.915,0,0,0,.111.461,9.034,9.034,0,0,0,.039,1.074,6.766,6.766,0,0,1,.076.729c.039.154.076.346.11.5a.624.624,0,0,0,.111.23,2.29,2.29,0,0,0,.346.576,2.011,2.011,0,0,0,.422.383,2.86,2.86,0,0,0,.461.269c.111.076.269.11.383.192.076.039.111.111.192.154s.111.076.192.076a.552.552,0,0,0,.268.076l.537.076c.076,0,.154.039.23.039h.383a2.547,2.547,0,0,0,.576-.111c.23-.076.461-.154.729-.269.23-.111.5-.23.691-.307a5.018,5.018,0,0,0,.5-.269l.076-.039.039-.076c0-.039.039-.039.076-.076.076-.076.111-.154.192-.23l.192-.23.039-.039h0a2.34,2.34,0,0,0,.23-.154c.111-.076.192-.11.307-.192.076-.039.111-.076.192-.111a.346.346,0,0,0,.039.192.4.4,0,0,0,.039.154.545.545,0,0,0,.076.23.12.12,0,0,0,.039.076,1.063,1.063,0,0,1,.039.346,1.021,1.021,0,0,0,.111.461.642.642,0,0,0,.438.332,3.011,3.011,0,0,0,.537.076,1.226,1.226,0,0,0,.537-.111,4.186,4.186,0,0,0,.422-.23c.11-.076.268-.154.383-.23s.192-.111.307-.192c.192-.076.422-.154.652-.23a5.123,5.123,0,0,0,.691-.269,1.952,1.952,0,0,0,.614-.5,1.529,1.529,0,0,0,.268-.92l-.039-.346h-.346Z" transform="translate(-98.669 -8.881)" fill="#171d21"/>
          <path id="Path_755" data-name="Path 755" d="M63.462,20.822h-.19l-.23.076a2.644,2.644,0,0,1-.307.111c-.11.039-.192.076-.307.111a.134.134,0,0,0-.076.039h-.039c-.23.076-.5.154-.806.269a4.461,4.461,0,0,1-.691.154,2.659,2.659,0,0,1-.767-.111,1.639,1.639,0,0,1-.691-.92,1.135,1.135,0,0,1-.076-.383v-.23l.154-.154v-.767c0-.422,0-.844.039-1.266s.039-.884.039-1.305a5.2,5.2,0,0,0-.076-.767,3.3,3.3,0,0,1-.039-.614V14.87a1.358,1.358,0,0,1,.039-.23v-.5a3.512,3.512,0,0,1,.039-.614,1.574,1.574,0,0,1,.039-.419h1.074l.076-.039h.076c.076,0,.154-.039.23-.039a.418.418,0,0,1,.192-.039c.039,0,.076-.039.111-.039H61.7a.346.346,0,0,0,.192-.039,1.808,1.808,0,0,0,.652-.154,2.133,2.133,0,0,0,.652-.346,1.807,1.807,0,0,0,.5-.576,1.888,1.888,0,0,0,.192-.767,1.348,1.348,0,0,0-.192-.767l-.039-.039a1.061,1.061,0,0,0-.884-.383,2.882,2.882,0,0,0-.995.192,6.613,6.613,0,0,1-.806.269,6.351,6.351,0,0,1-1.228.111h-.154v-.224a4.642,4.642,0,0,1,.039-.729A5.724,5.724,0,0,0,59.7,8.7V8.543a.653.653,0,0,1-.039-.269,1.12,1.12,0,0,0-.076-.346,2.644,2.644,0,0,0-.154-.383.766.766,0,0,0-.383-.307L58.973,7.2h-.111a1.023,1.023,0,0,0-.537.269l-.469.461c-.154.192-.346.383-.5.614-.192.23-.346.422-.5.614s-.269.383-.383.537c-.076.111-.154.192-.192.269l-.111.111c-.076.076-.111.154-.192.23a.8.8,0,0,0-.154.23l-.039.039-.076.039a3.367,3.367,0,0,1-.23.269l-.422.422-.422.422c-.11.076-.154.154-.23.192s-.111.111-.154.154a.682.682,0,0,0-.154.383v.076a1.363,1.363,0,0,0,.154.346c.039.076.111.111.154.154l.11.111h.154a4.17,4.17,0,0,0,.691.039h0a1.926,1.926,0,0,1,.461.076.839.839,0,0,1,.192.111.774.774,0,0,1,.111.422c0,.92-.039,1.842-.076,2.763s-.076,1.879-.076,2.84v1.918l.346,1.343a.619.619,0,0,0,.154.269c.039.039.076.076.076.111.039.076.111.111.154.192.039.039.111.076.154.111a2.482,2.482,0,0,0,.614.346,5.33,5.33,0,0,0,.729.23,4.934,4.934,0,0,0,.729.154,4.227,4.227,0,0,0,.691.076h.039a2.47,2.47,0,0,0,.92-.192,4.514,4.514,0,0,1,.767-.269l.192-.076h.039l.11-.039c.154-.076.383-.154.576-.269a4.375,4.375,0,0,0,.729-.383,2.806,2.806,0,0,0,.614-.537,1.537,1.537,0,0,0,.307-.884.773.773,0,0,0-.11-.422C63.846,20.937,63.654,20.822,63.462,20.822Z" transform="translate(-33.342 -4.321)" fill="#171d21"/>
          <path id="Path_756" data-name="Path 756" d="M212.354,23.9a3.218,3.218,0,0,0-.307-1.458,2.554,2.554,0,0,0-.959-1.151l-.076-.039h-.076c-.039,0-.076-.039-.111-.039s-.039-.039-.076-.039l-.076-.154h-.081l-.039-.039-.111-.076a.41.41,0,0,0-.192-.111c-.039,0-.076-.039-.111-.039-.076-.039-.154-.039-.23-.076s-.154-.039-.23-.076h-.039l-.111-.076c-.039-.039-.076-.076-.111-.076l-.076-.076a.511.511,0,0,0-.307-.111c-.039,0-.039,0-.076-.039l-.076-.039h-.076a.231.231,0,0,1-.154-.039.9.9,0,0,1-.307-.076c-.111-.039-.23-.039-.346-.076a.4.4,0,0,1-.154-.039h-.111a.647.647,0,0,1-.192-.076,1.6,1.6,0,0,0-.23-.076l-.111-.039a1.664,1.664,0,0,1-.192-.039.749.749,0,0,1-.269-.039h-.192l-.111-.039a.553.553,0,0,1-.269-.076c-.076-.076-.154-.111-.23-.192v-.039l-.076-.111a.134.134,0,0,1-.039-.076.546.546,0,0,1-.076-.23l-.076-.269v-.192a2.475,2.475,0,0,1,.111-.767,1.352,1.352,0,0,1,.307-.5,1.459,1.459,0,0,1,.5-.346,2.313,2.313,0,0,1,.729-.23h.039a1.925,1.925,0,0,1,.461.076,2.86,2.86,0,0,1,.461.269,2.011,2.011,0,0,1,.422.383,1.673,1.673,0,0,1,.346.422l.111.23.154.461a1.657,1.657,0,0,0,.192.461.729.729,0,0,0,.614.383.813.813,0,0,0,.767-.383,1.347,1.347,0,0,0,.23-.614,3.3,3.3,0,0,0,.039-.614,1.574,1.574,0,0,1,.039-.422.649.649,0,0,1,.111-.383,1.461,1.461,0,0,0,.11-.691v-.23c0-.11-.039-.23-.039-.346a1.363,1.363,0,0,0-.154-.346A.656.656,0,0,0,210.7,15h0a.844.844,0,0,0-.5.154,1.017,1.017,0,0,0-.23.192c-.039.039-.111.076-.154.111h-.039l-.192-.076a.189.189,0,0,0-.111-.039c-.039-.039-.111-.039-.192-.076-.269-.039-.614-.076-.959-.154a9.41,9.41,0,0,0-1.037-.076.486.486,0,0,0-.23.039l-.576.154a1.58,1.58,0,0,0-.307.111c-.11.039-.192.076-.307.111s-.192.039-.23.076l-.23.111c-.039.039-.076.039-.076.076l-.111.111-.111.111a.531.531,0,0,0-.154.111.838.838,0,0,0-.192.111c-.076.076-.192.154-.23.23s-.111.154-.154.23c0,.039-.039.076-.076.111a.673.673,0,0,1-.154.192l-.154.23c0,.039-.039.039-.039.076a.474.474,0,0,0-.076.111c-.039.039-.076.076-.076.111-.039.039-.111.111-.111.154-.039.076-.076.111-.111.192l-.039.111v.076c0,.076-.039.111-.039.192-.039.076-.039.154-.076.23,0,.076-.039.111-.039.192l-.039.346v.039a1.063,1.063,0,0,0-.039.346V19.7c0,.154.039.307.039.461.039.154.039.269.076.383s.039.23.111.307a2.6,2.6,0,0,0,.691.995,4.876,4.876,0,0,0,1.037.691c.383.192.767.346,1.151.5.383.111.729.23,1.036.307.154.039.307.039.422.076.154.039.269.039.422.076l.346.111a.836.836,0,0,1,.307.192l.076.039h.039l.23.23.192.192c.076.076.111.154.154.154a.348.348,0,0,1,.111.269c0,.192.039.346.039.461a2.187,2.187,0,0,1-.154.844,2.652,2.652,0,0,1-.383.729,2.2,2.2,0,0,1-.614.576,2.905,2.905,0,0,1-.691.346h-.039a1.305,1.305,0,0,1-.383-.039c-.154-.039-.307-.039-.5-.076a1.872,1.872,0,0,1-.422-.154.674.674,0,0,1-.192-.154c0-.039-.039-.076-.076-.111l-.039-.076c-.039-.039-.039-.11-.076-.154l-.039-.154-.154-.076v-.192l-.111-.111-.111-.11a.838.838,0,0,1-.154-.192c-.076-.076-.111-.154-.192-.23,0-.039-.039-.039-.039-.076a1.867,1.867,0,0,1-.11-.269c-.076-.192-.154-.422-.23-.652a3.177,3.177,0,0,0-.345-.614.7.7,0,0,0-.767-.307.773.773,0,0,0-.307.154.53.53,0,0,0-.23.422L203.518,27a.411.411,0,0,0,.076.23l.076.192a.649.649,0,0,1,.076.192c.039.076.076.111.11.192l.039.039a1.2,1.2,0,0,0,.422.346,1.6,1.6,0,0,0,.383.154,1.12,1.12,0,0,0,.346.076.977.977,0,0,1,.269.076c.039.039.111.039.192.076a.487.487,0,0,0,.23.039h.076c.076,0,.111.039.192.039s.154.039.23.039h.307c.076,0,.192.039.307.039s.269.039.383.039h1.535l.461-.154c.154-.039.346-.111.537-.154a4.875,4.875,0,0,0,.5-.192c.153-.082.269-.154.422-.23a5.921,5.921,0,0,0,.5-.461,3.876,3.876,0,0,0,.5-.614,6.663,6.663,0,0,0,.422-.691,2.437,2.437,0,0,0,.23-.691v-.307c0-.154.039-.307.039-.461,0-.192.039-.346.039-.5v-.5C212.354,23.978,212.354,23.941,212.354,23.9Z" transform="translate(-125.291 -9.127)" fill="#171d21"/>
          <path id="Path_757" data-name="Path 757" d="M19.914,18.079a3.265,3.265,0,0,0-.383-.111.2.2,0,0,1-.154-.076l-.039-.039h-.192l-.154-.039a.346.346,0,0,1-.192-.039h-.269a.57.57,0,0,1-.23-.039.8.8,0,0,1-.383-.23,1.326,1.326,0,0,1-.269-.461c-.076-.192-.111-.383-.192-.576a3.25,3.25,0,0,0-.154-.652l-.039-.076c0-.039-.039-.076-.039-.154l-.192-.614a1.509,1.509,0,0,1-.076-.23l-.039-.192c0-.076-.039-.154-.039-.23v-.154c-.154-.576-.346-1.189-.576-1.8-.192-.537-.346-1.113-.5-1.688v-.111c0-.076-.039-.154-.039-.23-.039-.076-.039-.154-.076-.192,0-.039-.039-.076-.039-.154,0-.039-.039-.076-.039-.111-.039-.039-.039-.111-.076-.154a.134.134,0,0,0-.039-.076c0-.039,0-.039-.039-.076a.141.141,0,0,0-.039-.111c-.039-.076-.039-.192-.076-.307-.039-.076-.039-.192-.076-.269V8.778l-.039-.346h-.154L15,8.322v-.1l-.039-.154c0-.076-.039-.111-.039-.154,0-.076-.039-.111-.039-.154V7.336l-.039-.076a1.871,1.871,0,0,1-.111-.269c-.076-.192-.111-.346-.192-.576a3.377,3.377,0,0,1-.192-.576.712.712,0,0,1-.076-.269c0-.076-.039-.111-.039-.192a2.445,2.445,0,0,1-.076-.269c-.039-.076-.039-.192-.076-.269,0-.076-.039-.154-.039-.23a1.357,1.357,0,0,1-.039-.23c-.039-.111-.039-.23-.076-.383-.039-.111-.039-.23-.076-.383,0-.076-.039-.111-.039-.192l-.039-.192c-.039-.076-.076-.111-.111-.192-.039-.039-.039-.076-.076-.111a.134.134,0,0,1-.039-.076A6.563,6.563,0,0,1,13.205,1.7,7.916,7.916,0,0,0,12.739.352L12.7.276a1.326,1.326,0,0,0-.422-.383A1.113,1.113,0,0,0,11.587-.3a1.682,1.682,0,0,0-.729.269l-.421.346a.141.141,0,0,1-.111.039l-.35.038c-.115.039-.23.039-.307.076a.732.732,0,0,0-.387.192L9.209.737l.039.23c0,.076-.039.111-.039.192v.111a1.364,1.364,0,0,0,.076.383c.039.076.076.192.111.269s.039.111.076.192c0,.039.039.076.039.154a.748.748,0,0,1-.039.307c-.076.154-.111.346-.192.5v.154a.231.231,0,0,0-.039.154.083.083,0,0,1-.07.077c-.076.076-.111.154-.192.23s-.111.154-.192.23c-.039.039-.076.076-.076.111A.839.839,0,0,0,8.6,4.22L8.447,4.3,8.4,4.381c0,.039-.039.076-.076.154-.039.039-.039.111-.076.192,0,.039-.039.111-.039.154l-.03.076c0,.039-.039.076-.076.154a.961.961,0,0,1-.154.269,1.871,1.871,0,0,0-.111.269L7.761,5.8l-.039.111c0,.039,0,.076-.039.076a.231.231,0,0,0-.039.154l-.039.039a1.166,1.166,0,0,0-.192.269.712.712,0,0,0-.076.269,1.186,1.186,0,0,1-.076.307c-.039.111-.039.23-.076.346,0,.076-.039.111-.039.154l-.076.23c0,.039-.039.076-.076.111a.435.435,0,0,0-.111.307.038.038,0,0,1-.039.039c-.039.076-.076.111-.111.192l-.23.5c0,.039-.039.076-.076.111l-.039.076v.076c-.039.076-.076.111-.111.192l-.111.23.039.192c-.039.076-.039.192-.076.269a.168.168,0,0,1-.039.111l-.111.307c-.039.076-.039.154-.076.23l-.073.056c-.307.767-.652,1.5-.995,2.226a23.821,23.821,0,0,0-.995,2.264c-.111.383-.269.691-.383.995A2.126,2.126,0,0,1,2.884,17a.475.475,0,0,1-.111.076c-.076.039-.111.111-.192.154-.076.076-.154.111-.192.154-.076.076-.111.154-.192.23l-.076.111H1.957a6.805,6.805,0,0,0-.844.039,1.926,1.926,0,0,0-.461.076,1.437,1.437,0,0,0-.461.269A.917.917,0,0,0,0,18.655a1.181,1.181,0,0,0,.111.5l.039.076A.819.819,0,0,0,.61,19.5h.427l.5.039a2.027,2.027,0,0,1,.5.039h.5a.486.486,0,0,0,.23-.039,1.657,1.657,0,0,0,.192-.039H5.415a10.054,10.054,0,0,1,1.074.039,8.924,8.924,0,0,1,1.074.192l.111.039.111-.039c.154-.039.307-.111.461-.154a.7.7,0,0,0,.5-.691,1.088,1.088,0,0,0-.378-.841,1.421,1.421,0,0,0-.691-.307,4.325,4.325,0,0,0-.691-.111,1.022,1.022,0,0,1-.461-.111.325.325,0,0,0-.23-.076l-.23-.111c-.039-.039-.111-.076-.154-.111v-.5a2.245,2.245,0,0,1,.076-.5c.039-.192.111-.346.154-.537l.23-.576a3.377,3.377,0,0,0,.192-.576l.111-.346.111-.461a1.926,1.926,0,0,0,.076-.461l.039-.23a.683.683,0,0,1,.422-.307,2.921,2.921,0,0,1,.806-.111H9.282a2.618,2.618,0,0,0,.461-.039c.192,0,.383-.039.614-.039s.422-.039.614-.039a.569.569,0,0,0,.269-.039,4.161,4.161,0,0,0,.422.111c.111,0,.269.039.383.039a.748.748,0,0,1,.307.039.546.546,0,0,1,.23.076.839.839,0,0,1,.111.192,5.125,5.125,0,0,1,.269.691c.076.269.192.576.307.92s.192.652.269.92c.076.307.154.576.192.806a1.632,1.632,0,0,1,.076.422v.591a.231.231,0,0,1-.039.154.134.134,0,0,1-.039.076l-.039.039c-.111,0-.192.039-.307.039a1.944,1.944,0,0,1-.5.076l-.5.076c-.076,0-.154.039-.23.039l-.111.039a1.815,1.815,0,0,0-.461.269,1.437,1.437,0,0,0-.461.5l-.039.111v.076a.633.633,0,0,0,.346.576,1.091,1.091,0,0,0,.461.154,1.72,1.72,0,0,0,.422.039h.307a2.542,2.542,0,0,0,.576-.039,3.2,3.2,0,0,0,.576-.154H15.5c.576,0,1.189.039,1.727.076.614.039,1.189.076,1.8.076h.307a1.926,1.926,0,0,0,.461-.076,1.419,1.419,0,0,0,.422-.192.789.789,0,0,0,.307-.576.691.691,0,0,0-.269-.576C20.182,18.195,20.03,18.118,19.914,18.079ZM9.861,5.072c.039-.192.111-.383.154-.537l.154.154.154.154.076.076a1.362,1.362,0,0,1,.154.346c.039.154.111.346.154.5.039.192.076.346.111.537a1.9,1.9,0,0,0,.154.5l.039.076c.039.039.039.076.076.111.039.076.076.111.111.192l.076.192a.134.134,0,0,0,.039.076v.039c0,.039.039.111.039.154s.039.111.039.154V7.9c.111.422.269.884.422,1.343a3.324,3.324,0,0,1,.235,1.238v.192l-.154.111h-.576a1.452,1.452,0,0,1-.3-.034,1.012,1.012,0,0,0-.269.039c-.111,0-.269.039-.422.039s-.266.033-.385.033h-.5a6.274,6.274,0,0,1-.844-.076,4.407,4.407,0,0,0-.729-.039,1.121,1.121,0,0,1,.076-.346c.076-.23.154-.422.23-.614.039-.154.111-.307.154-.461.039-.192.111-.346.154-.537s.111-.346.154-.5c0-.039.039-.076.076-.154l.076-.111V7.95c.039-.039.039-.111.076-.154.039-.076.076-.111.076-.192.039-.076.076-.111.076-.154a3.925,3.925,0,0,0,.307-.806,6.613,6.613,0,0,0,.269-.806A4.514,4.514,0,0,0,9.861,5.072Z" transform="translate(0 0.302)" fill="#171d21"/>
          <path id="Path_758" data-name="Path 758" d="M141.543,16.342a.773.773,0,0,0-.154-.307,3.228,3.228,0,0,0-.92-.844,6.119,6.119,0,0,0-1.037-.461l-.076-.039c-.039-.039-.11-.039-.192-.076v-.076l-.806-.039h-.192a9.147,9.147,0,0,0-1.768.154,5.445,5.445,0,0,0-1.535.461,6.346,6.346,0,0,0-1.381.844,9.576,9.576,0,0,0-1.266,1.228l-.039.039a.3.3,0,0,0-.154.154c-.039.039-.039.076-.076.111a1.281,1.281,0,0,0-.111.23c0,.039-.039.076-.039.154-.039.076-.039.111-.076.192,0,.076-.039.111-.039.192V18.3c-.039.076-.11.154-.11.23-.039.111-.111.23-.154.346a1.361,1.361,0,0,0-.154.346.7.7,0,0,1-.076.154l-.111.23a.7.7,0,0,1-.076.154l-.039.076v.3c0,.111-.039.269-.039.422l-.076.383a.779.779,0,0,1-.039.192v.422c0,.537.039,1.113.076,1.65a11.422,11.422,0,0,0,.346,1.65,6.09,6.09,0,0,0,.691,1.535,5.077,5.077,0,0,0,1.113,1.266,1.58,1.58,0,0,0,.806.383c.154.039.346.076.5.111.039,0,.039.039.076.039l.039.039a.083.083,0,0,1,.076.076.352.352,0,0,0,.23.154h.039l.076.039c.039.039.111.039.23.076l.23.076c.076.039.154.039.23.076.076,0,.111.039.23.039h.767a5.934,5.934,0,0,0,2.418-.5,4.819,4.819,0,0,0,1.986-1.721c.076-.111.192-.269.307-.461a1.446,1.446,0,0,0,.269-.806.553.553,0,0,0-.076-.269.514.514,0,0,0-.5-.307.994.994,0,0,0-.576.154,1.5,1.5,0,0,0-.383.307l-.307.269a.688.688,0,0,1-.269.192.118.118,0,0,0-.076.039l-.23.076c-.076.039-.154.039-.23.076s-.154.039-.192.076c-.23.076-.461.154-.767.23a4.326,4.326,0,0,1-.691.111,2.246,2.246,0,0,1-.5-.076,2.067,2.067,0,0,1-.5-.269l-.461-.346c-.154-.154-.269-.307-.383-.422a4.783,4.783,0,0,1-.576-1.074,4.437,4.437,0,0,1-.307-1.228c0-.076-.039-.23-.076-.461l-.11-.806c-.039-.307-.076-.576-.111-.844a3.374,3.374,0,0,0-.076-.537v-.111a3.356,3.356,0,0,1,.076-.614,5.826,5.826,0,0,1,.23-.767,5.9,5.9,0,0,1,.307-.729,2.446,2.446,0,0,1,.307-.537l.039-.039c.039-.039.039-.076.076-.111l.076-.076.154-.111a2.345,2.345,0,0,0,.23-.154c.192-.154.346-.307.537-.461a.784.784,0,0,1,.346-.192h.039l.269-.039h.422l.111.076c.111.076.192.154.307.23l.307.23.111.111.039.039.039.039a2.576,2.576,0,0,1,.268.422,5.014,5.014,0,0,0,.383.576,5.912,5.912,0,0,0,.461.5,1.216,1.216,0,0,0,.729.269,1.734,1.734,0,0,0,1.343-.5l.039-.039a2.037,2.037,0,0,0,.345-1.305v-.266l-.039-.076C141.581,16.457,141.581,16.379,141.543,16.342Z" transform="translate(-80.611 -8.82)" fill="#171d21"/>
          <path id="Path_759" data-name="Path 759" d="M115.93,27.957c-.076,0-.111-.039-.192-.039-.11,0-.192-.039-.307-.039a.486.486,0,0,1-.23-.039l-.111-.039h-.154l-.039-.111h-.273a.231.231,0,0,0-.154.039h-.039c-.039-.076-.039-.154-.076-.23-.039-.111-.039-.192-.076-.307,0-.039,0-.111-.039-.111v-.076c.039-.076.039-.154.076-.23,0-.039,0-.111.039-.111a.417.417,0,0,1,.039-.192v-.269l-.039-.076v-.076c0-.076-.039-.154-.039-.23V20.014l-.11-.576v-.576a5.2,5.2,0,0,1,.076-.767,6.3,6.3,0,0,0,.076-.884,1.807,1.807,0,0,0-.154-.652.774.774,0,0,0-.729-.461,1.305,1.305,0,0,0-.383.039.774.774,0,0,0-.307.154c-.076.039-.154.111-.23.154a1.575,1.575,0,0,1-.192.111l-.345.111c-.154.039-.307.076-.422.111-.039,0-.11.039-.154.039l-.192.076a.189.189,0,0,1-.11.039c-.039,0-.111.039-.154.039a.29.29,0,0,0-.154.039c-.11.039-.23.039-.346.076-.154,0-.269.039-.383.039-.076,0-.154.039-.269.039a1.007,1.007,0,0,0-.346.192.713.713,0,0,0-.346.576.725.725,0,0,0,.422.691,1.809,1.809,0,0,0,.576.23,3.376,3.376,0,0,1,.576.192.839.839,0,0,1,.192.111c.039.039.039.076.076.11a1.522,1.522,0,0,1,.11.154l.039.039c0,.039,0,.039-.039.076,0,.039-.039.111-.039.154l-.039,1.879v.269a2.362,2.362,0,0,1-.039.5c0,.192-.039.422-.039.652s-.039.461-.039.652-.039.383-.039.537V26.5a2.721,2.721,0,0,1-.039.537,2.027,2.027,0,0,1-.039.5v.111a.231.231,0,0,1-.154.039c-.192,0-.383.039-.576.039a1.608,1.608,0,0,0-.576.154c-.192.076-.383.307-.383.767V28.8a.712.712,0,0,0,.076.269.516.516,0,0,0,.23.269l.076.039c.039.039.11.039.269.111.039,0,.076.039.111.039l.11.076h.844a6.851,6.851,0,0,0,.884-.076,4.641,4.641,0,0,1,.729-.039h.154c.076,0,.154.039.23.039s.154.039.23.039h2.578a1.13,1.13,0,0,0,.5-.192.857.857,0,0,0,.383-.691c0-.111-.039-.23-.039-.346a.934.934,0,0,0-.533-.374Z" transform="translate(-67.238 -9.805)" fill="#171d21"/>
          <path id="Path_760" data-name="Path 760" d="M90.4,20.822h-.192l-.23.076a2.642,2.642,0,0,1-.307.111c-.111.039-.192.076-.307.111a.134.134,0,0,0-.076.039h-.039c-.23.076-.5.154-.806.269a4.461,4.461,0,0,1-.691.154,2.659,2.659,0,0,1-.767-.111,2.051,2.051,0,0,1-.5-.5,1.418,1.418,0,0,1-.192-.422,1.135,1.135,0,0,1-.076-.383v-.23l.111-.111v-.806c0-.422,0-.844.039-1.266s.039-.884.039-1.305a5.2,5.2,0,0,0-.076-.767,3.3,3.3,0,0,1-.039-.614v-.192a1.357,1.357,0,0,1,.039-.23v-.5a3.509,3.509,0,0,1,.039-.614,1.574,1.574,0,0,1,.039-.422h1.074l.076-.039h.076c.076,0,.154-.039.23-.039a.418.418,0,0,1,.192-.039c.039,0,.076-.039.11-.039h.422a.346.346,0,0,0,.192-.039,1.808,1.808,0,0,0,.652-.154,2.134,2.134,0,0,0,.652-.346,1.807,1.807,0,0,0,.5-.576,1.887,1.887,0,0,0,.192-.767,1.348,1.348,0,0,0-.192-.767l-.039-.039a1.061,1.061,0,0,0-.884-.383,2.882,2.882,0,0,0-.995.192,6.614,6.614,0,0,1-.806.269,6.351,6.351,0,0,1-1.228.111H86.48v-.225a4.64,4.64,0,0,1,.045-.729A5.724,5.724,0,0,0,86.6,8.7V8.543a.653.653,0,0,1-.039-.269,1.12,1.12,0,0,0-.076-.346,2.651,2.651,0,0,0-.154-.383.766.766,0,0,0-.383-.307L85.873,7.2h-.111a1.023,1.023,0,0,0-.537.269l-.469.461c-.154.192-.346.383-.5.614-.192.23-.346.422-.5.614s-.269.383-.383.537c-.076.111-.154.192-.192.269l-.11.111c-.076.076-.111.154-.192.23a.8.8,0,0,0-.154.23l-.039.039-.076.039a3.366,3.366,0,0,1-.23.269l-.422.422-.422.422c-.111.076-.154.154-.23.192s-.11.111-.154.154a.682.682,0,0,0-.154.383v.076a1.363,1.363,0,0,0,.154.346c.039.076.111.111.154.154l.111.111h.154a4.17,4.17,0,0,0,.691.039h0a1.926,1.926,0,0,1,.461.076.839.839,0,0,1,.192.111.773.773,0,0,1,.11.422c0,.92-.039,1.842-.076,2.763s-.076,1.879-.076,2.84v1.918l.346,1.343a.619.619,0,0,0,.154.269c.039.039.076.076.076.111.039.076.11.111.154.192.039.039.111.076.154.111a2.481,2.481,0,0,0,.614.346,5.332,5.332,0,0,0,.729.23,4.934,4.934,0,0,0,.729.154,4.227,4.227,0,0,0,.691.076h.039a2.47,2.47,0,0,0,.92-.192,4.516,4.516,0,0,1,.767-.269l.192-.076h.039l.11-.039c.154-.076.383-.154.576-.269a4.377,4.377,0,0,0,.729-.383,2.806,2.806,0,0,0,.614-.537,1.537,1.537,0,0,0,.307-.884.774.774,0,0,0-.111-.422C90.746,20.937,90.554,20.822,90.4,20.822Z" transform="translate(-49.92 -4.321)" fill="#171d21"/>
        </g>
        <circle id="Ellipse_167" cx="1.918" cy="1.918" r="1.918" transform="translate(43.205 0.194)" fill="#fe2121"/>
      </g>
      <g id="Group_290" data-name="Group 290">
        <g id="Group_190" data-name="Group 190" clip-path="url(#clip-path)">
          <path id="Path_236" data-name="Path 236" d="M28.434,15.033A14.217,14.217,0,1,1,14.217.816,14.217,14.217,0,0,1,28.434,15.033" transform="translate(-0.128 -1.154)" fill="#8cbcf4"/>
          <path id="Path_237" data-name="Path 237" d="M64.881,202.854c-2.231-2.086-5.281-2.2-8.645-2.2s-6.409.111-8.645,2.2a14.17,14.17,0,0,0,17.289,0" transform="translate(-42.195 -177.699)" fill="#3568ba"/>
          <path id="Path_238" data-name="Path 238" d="M96.955,204.532s-2.21,2.234-2.894,1.814-.613-3.272,0-3.629,2.894,1.814,2.894,1.814" transform="translate(-82.841 -179.486)" fill="#ea2626"/>
          <path id="Path_239" data-name="Path 239" d="M122.208,204.543s2.21-2.234,2.894-1.814.613,3.272,0,3.629-2.894-1.814-2.894-1.814" transform="translate(-108.148 -179.484)" fill="#ea2626"/>
          <path id="Path_240" data-name="Path 240" d="M117.582,212.931a.245.245,0,0,1-.254.234h-.891a.245.245,0,0,1-.254-.234v-1.209a.244.244,0,0,1,.254-.233h.891a.244.244,0,0,1,.254.233Z" transform="translate(-102.822 -187.273)" fill="#b21909"/>
          <path id="Path_241" data-name="Path 241" d="M122.09,63.419Z" transform="translate(-108.044 -56.394)" fill="#3568ba"/>
          <path id="Path_242" data-name="Path 242" d="M48.16,7.654c-.027-.362-.043-.726-.064-1.09a6.727,6.727,0,0,0-.086-.688,3.922,3.922,0,0,0-.5-1.356,1.623,1.623,0,0,0-1.29-.687,2.2,2.2,0,0,0-1.714.733,14.335,14.335,0,0,0-2.422,3.21c-.629,1.082-1.443,2.763-1.729,3.331a15.527,15.527,0,0,0-6.694,0c-.286-.571-1.105-2.249-1.729-3.331a14.317,14.317,0,0,0-2.422-3.212,2.195,2.195,0,0,0-1.714-.733,1.623,1.623,0,0,0-1.29.687A3.919,3.919,0,0,0,26,5.873a6.7,6.7,0,0,0-.086.688c-.021.364-.038.726-.064,1.09A10.174,10.174,0,0,0,25.9,9.959a18.939,18.939,0,0,1,.455,2.217,6,6,0,0,1-.292,1.179,1.8,1.8,0,0,0,.045.965,6.987,6.987,0,0,0,1.081,1.735,4.542,4.542,0,0,1,.577,1,4.9,4.9,0,0,1,.16,1.834,27.037,27.037,0,0,0-.46,3.094,14.482,14.482,0,0,0,1.326,3.606,7,7,0,0,0,2.754,1.665,2.15,2.15,0,0,0,1.019.11c2.167-.138,4.234-2.2,4.42-2.347h.038c.188.144,2.255,2.21,4.42,2.347a2.151,2.151,0,0,0,1.019-.111,7,7,0,0,0,2.75-1.669,14.476,14.476,0,0,0,1.326-3.606,27.006,27.006,0,0,0-.46-3.094,4.9,4.9,0,0,1,.16-1.834,4.536,4.536,0,0,1,.577-1A6.99,6.99,0,0,0,47.9,14.316a1.8,1.8,0,0,0,.045-.965,6,6,0,0,1-.293-1.179A18.914,18.914,0,0,1,48.1,9.955a10.166,10.166,0,0,0,.046-2.307" transform="translate(-22.942 -3.717)" fill="#3568ba"/>
          <path id="Path_243" data-name="Path 243" d="M122.09,63.419Z" transform="translate(-108.044 -56.394)" fill="#fff"/>
          <path id="Path_244" data-name="Path 244" d="M67,73.831a25.119,25.119,0,0,1-2.639-1.977c-1.27-1.326-1.207-3.628-1.075-5.352,0,0,.145-1.908.221-2.966a15.636,15.636,0,0,0-3.889,0c.081,1.059.221,2.961.221,2.961.132,1.724.193,4.029-1.075,5.352a25.142,25.142,0,0,1-2.63,1.981,6.243,6.243,0,0,0-2.264,3.159c-.042.149-.173.884-.253,1.555a8.758,8.758,0,0,0,2.508,1.387,2.154,2.154,0,0,0,1.019.111c2.167-.138,3.784,1.088,3.97.944l.7.017c.188.144,2.049-1.1,4.216-.96a2.154,2.154,0,0,0,1.019-.11,8.959,8.959,0,0,0,2.475-1.355c-.078-.681-.214-1.437-.256-1.587A6.244,6.244,0,0,0,67,73.829" transform="translate(-47.524 -56.392)" fill="#fff"/>
          <rect id="Rectangle_810" data-name="Rectangle 810" width="0.887" height="1.563" transform="translate(13.603 19.181)" fill="#4c2929"/>
          <path id="Path_245" data-name="Path 245" d="M105.356,143.521c-.5-1.169-4.571-1.133-4.964,0-.4,1.683,2.13,2.542,2.482,2.542s2.879-.863,2.482-2.542" transform="translate(-88.827 -126.434)" fill="#4c2929"/>
          <path id="Path_246" data-name="Path 246" d="M37.152,17.8c-.646-.724-1.732-.932-2.16.189a8.072,8.072,0,0,0-.275,2.984c.021,1.138.725,1.924.875,3.049-.221,1.719-.084,2.5,1.082,3,1.105-1.831,3.255-2.107,3.384-3.55.111-1.216-2.17-4.844-2.905-5.665" transform="translate(-30.801 -15.545)" fill="#fff"/>
          <path id="Path_247" data-name="Path 247" d="M166.234,17.8c.646-.724,1.732-.932,2.16.189a8.067,8.067,0,0,1,.275,2.984c-.021,1.138-.725,1.924-.875,3.049.221,1.719.084,2.5-1.082,3-1.1-1.831-3.255-2.107-3.384-3.55-.111-1.216,2.17-4.844,2.905-5.665" transform="translate(-144.492 -15.545)" fill="#fff"/>
          <path id="Path_248" data-name="Path 248" d="M122.083,60.484h-.021V59.6h.044l-.007.884Z" transform="translate(-108.016 -53.013)" fill="#3568ba"/>
          <path id="Path_249" data-name="Path 249" d="M33.686,25.392a8.323,8.323,0,0,1-3.878-.995c-.125.009-.318.02-.562.02a4.752,4.752,0,0,1-4.209-1.986,14.768,14.768,0,0,1-1.389-3.774,5.763,5.763,0,0,1,.239-1.906,6.566,6.566,0,0,0,.221-1.246v-.294a3.623,3.623,0,0,0-.136-1.377,4.042,4.042,0,0,0-.522-.9c-.07-.1-.141-.192-.214-.288a5.789,5.789,0,0,1-.928-1.561,2.244,2.244,0,0,1-.061-1.2,4.017,4.017,0,0,1,.144-.5,2.017,2.017,0,0,0,.14-.582A5.457,5.457,0,0,0,22.3,7.592a8.846,8.846,0,0,1-.221-.95,10.387,10.387,0,0,1-.05-2.408c.019-.251.033-.509.046-.76.006-.111.011-.214.018-.323a7.149,7.149,0,0,1,.091-.735A4.358,4.358,0,0,1,22.735.906a2.017,2.017,0,0,1,1.637-.9,2.581,2.581,0,0,1,2.064.852,14.448,14.448,0,0,1,2.5,3.315c.537.924,1.216,2.282,1.571,3.01l.019.039a15.427,15.427,0,0,1,3.017-.3h.172a15.43,15.43,0,0,1,3.017.3l.019-.039c.361-.729,1.034-2.086,1.571-3.01a14.438,14.438,0,0,1,2.5-3.315A2.581,2.581,0,0,1,42.887.011a2.014,2.014,0,0,1,1.624.9,4.337,4.337,0,0,1,.553,1.511,6.959,6.959,0,0,1,.092.735l.018.323c.013.25.028.508.046.76a10.387,10.387,0,0,1-.05,2.408,8.989,8.989,0,0,1-.221.95,5.471,5.471,0,0,0-.233,1.216,2.017,2.017,0,0,0,.141.582,4.138,4.138,0,0,1,.144.5,2.245,2.245,0,0,1-.062,1.2,5.8,5.8,0,0,1-.928,1.561c-.072.1-.144.192-.213.288a4.015,4.015,0,0,0-.522.9,3.612,3.612,0,0,0-.136,1.377v.294a6.536,6.536,0,0,0,.221,1.246,5.769,5.769,0,0,1,.239,1.906,14.767,14.767,0,0,1-1.376,3.765,4.23,4.23,0,0,1-4.019,2h0c-.332,0-.607-.023-.774-.039a7.447,7.447,0,0,1-3.744.995M30.009,23.5l.111.057a7.487,7.487,0,0,0,3.571.947,6.431,6.431,0,0,0,3.395-.93L37.2,23.5l.141.006a.707.707,0,0,1,.126.01c.141.013.407.039.735.039a3.536,3.536,0,0,0,3.244-1.56l.01-.017a14.287,14.287,0,0,0,1.267-3.426,5.275,5.275,0,0,0-.221-1.588,7.062,7.062,0,0,1-.24-1.437c0-.093,0-.187-.006-.282a4.4,4.4,0,0,1,.2-1.717,4.862,4.862,0,0,1,.631-1.105c.072-.1.146-.2.221-.3A5.074,5.074,0,0,0,44.1,10.8a1.361,1.361,0,0,0,.03-.734,3.357,3.357,0,0,0-.111-.385,2.615,2.615,0,0,1-.186-.9A6.221,6.221,0,0,1,44.1,7.37a8.051,8.051,0,0,0,.2-.855,9.579,9.579,0,0,0,.042-2.21c-.02-.261-.034-.524-.048-.774-.006-.111-.011-.212-.018-.319A6.275,6.275,0,0,0,44.2,2.57a3.482,3.482,0,0,0-.442-1.2A1.223,1.223,0,0,0,42.8.894a1.748,1.748,0,0,0-1.364.613A13.606,13.606,0,0,0,39.088,4.62c-.523.9-1.187,2.239-1.547,2.958l-.172.347-.155.308-.332-.073a14.739,14.739,0,0,0-3.167-.355h-.17a14.739,14.739,0,0,0-3.167.355l-.332.073-.155-.308-.172-.347c-.357-.72-1.021-2.06-1.547-2.958a13.61,13.61,0,0,0-2.347-3.113A1.748,1.748,0,0,0,24.462.894a1.223,1.223,0,0,0-.953.472,3.463,3.463,0,0,0-.442,1.2,6.275,6.275,0,0,0-.081.642l-.018.319c-.013.254-.028.517-.048.774a9.547,9.547,0,0,0,.042,2.21,8.044,8.044,0,0,0,.2.855,6.235,6.235,0,0,1,.262,1.413,2.612,2.612,0,0,1-.187.9,3.354,3.354,0,0,0-.111.385,1.367,1.367,0,0,0,.03.734,5.061,5.061,0,0,0,.8,1.319c.075.1.149.2.221.3a4.877,4.877,0,0,1,.631,1.105,4.4,4.4,0,0,1,.2,1.717v.282a7.1,7.1,0,0,1-.24,1.437,5.278,5.278,0,0,0-.221,1.588,14.287,14.287,0,0,0,1.267,3.426,3.671,3.671,0,0,0,3.437,1.568c.256,0,.453-.014.559-.022h.081Z" transform="translate(-19.563 -0.338)" fill="#3568ba"/>
          <path id="Path_250" data-name="Path 250" d="M73.4,175.45a4.864,4.864,0,0,1-1.159-.141,2.873,2.873,0,0,1-2.39-2.431.442.442,0,0,1,.884-.025c.023.812.884,1.387,1.717,1.6,1.494.372,2.507-.141,2.818-.774a1.907,1.907,0,0,0,.186-.717l.013-.43h.457a.443.443,0,0,1,.4.624,2.849,2.849,0,0,1-.264.912,2.459,2.459,0,0,1-1.757,1.292,4.151,4.151,0,0,1-.914.1" transform="translate(-61.866 -152.741)" fill="#4c2929"/>
          <path id="Path_251" data-name="Path 251" d="M121.214,175.45a4.173,4.173,0,0,1-.916-.1,2.466,2.466,0,0,1-1.768-1.291,2.847,2.847,0,0,1-.265-.912.442.442,0,0,1,.4-.627h.457l.013.43a1.9,1.9,0,0,0,.187.717c.312.634,1.326,1.148,2.832.774.842-.209,1.7-.783,1.725-1.595a.442.442,0,1,1,.884.025,2.873,2.873,0,0,1-2.4,2.431,4.871,4.871,0,0,1-1.164.141" transform="translate(-104.632 -152.741)" fill="#4c2929"/>
          <path id="Path_252" data-name="Path 252" d="M60.611,114.559a1.768,1.768,0,1,1-1.768-1.768,1.768,1.768,0,0,1,1.768,1.768" transform="translate(-50.585 -100.038)" fill="#fff"/>
          <path id="Path_253" data-name="Path 253" d="M159.944,114.559a1.762,1.762,0,1,1-.516-1.252,1.768,1.768,0,0,1,.516,1.252" transform="translate(-138.386 -100.038)" fill="#fff"/>
          <path id="Path_254" data-name="Path 254" d="M65.221,117.393A1.391,1.391,0,1,1,63.832,116a1.391,1.391,0,0,1,1.389,1.393" transform="translate(-55.319 -102.872)" fill="#4c2929"/>
          <path id="Path_255" data-name="Path 255" d="M76.63,122.865a.5.5,0,0,0-.314.11.5.5,0,0,1,.394.884.5.5,0,0,0-.081-.995" transform="translate(-67.578 -108.938)" fill="#fff"/>
          <path id="Path_256" data-name="Path 256" d="M158.084,117.393A1.391,1.391,0,1,0,159.475,116a1.391,1.391,0,0,0-1.391,1.393" transform="translate(-139.859 -102.872)" fill="#4c2929"/>
          <path id="Path_257" data-name="Path 257" d="M171.919,122.865a.5.5,0,0,0-.314.11.453.453,0,0,1,.08-.008.5.5,0,0,1,.315.89.5.5,0,0,0-.081-.995" transform="translate(-151.809 -108.938)" fill="#fff"/>
          <path id="Path_258" data-name="Path 258" d="M41.567,99.288c.111-.283.221-.572.308-.87.044-.155.083-.319.12-.477a2.747,2.747,0,0,1,.995-1.87l.221-.135.171-.11V94.295c0-.032,0-.05-.136-.057l-.212-.007-.389-.018h-.027c-.567-.029-1.141-.073-1.7-.11l-.283-.021-.474-.036h-.053c-.313-.024-.627-.049-.939-.071-.616-.043-1.166-.064-1.684-.064a15.013,15.013,0,0,0-2.249.157c-.442.066-.884.147-1.316.221l-.332.06c-.147.027-.3.057-.442.087h-.012c-.21.044-.424.09-.639.12l-.126.019a6.6,6.6,0,0,1-.929.092,8.236,8.236,0,0,1-1.6-.214c-.183-.038-.365-.073-.545-.1l-.332-.06c-.43-.077-.874-.157-1.316-.221a15.013,15.013,0,0,0-2.249-.157c-.518,0-1.069.021-1.684.064-.313.022-.624.046-.937.071l-.813.063c-.553.042-1.13.086-1.7.111h-.029l-.389.018-.2.01c-.136.008-.136.025-.136.057v1.535l.171.11.221.135a2.745,2.745,0,0,1,.995,1.87c.04.169.077.325.12.477.084.3.2.588.308.87a3.443,3.443,0,0,0,1.989,2.1,6.555,6.555,0,0,0,1.635.394,5.746,5.746,0,0,0,3.063-.53,4.724,4.724,0,0,0,2.476-3.35q.022-.094.04-.189a2.2,2.2,0,0,1,.215-.682.789.789,0,0,1,1.4,0,2.2,2.2,0,0,1,.221.682c.013.063.025.126.04.189a4.724,4.724,0,0,0,2.476,3.35,5.725,5.725,0,0,0,3.063.53,6.55,6.55,0,0,0,1.635-.395,3.442,3.442,0,0,0,1.989-2.1m-12.686.359a3.96,3.96,0,0,1-1.216.928,4.019,4.019,0,0,1-1.437.43,6.578,6.578,0,0,1-.76.045,4.045,4.045,0,0,1-2.146-.532,3.394,3.394,0,0,1-1.122-1.154,5.347,5.347,0,0,1-.486-1.309,6.553,6.553,0,0,1-.136-1.254c0-.055,0-.11,0-.17v-.2a1.6,1.6,0,0,1,.243-1.034,2.132,2.132,0,0,1,1.53-.582l.072-.008a18.757,18.757,0,0,1,2.114-.135,8.99,8.99,0,0,1,2.388.282,3,3,0,0,1,1.049.5,2.01,2.01,0,0,1,.681.9,4.048,4.048,0,0,1-.774,3.285m8.526,1.4a6.569,6.569,0,0,1-.76-.045,4.019,4.019,0,0,1-1.437-.43,3.969,3.969,0,0,1-1.216-.928,4.048,4.048,0,0,1-.774-3.285,2.017,2.017,0,0,1,.682-.9,3.011,3.011,0,0,1,1.049-.5,8.992,8.992,0,0,1,2.388-.282,18.747,18.747,0,0,1,2.113.135l.072.008a2.134,2.134,0,0,1,1.53.582,1.6,1.6,0,0,1,.243,1.033q0,.1,0,.2v.171a6.543,6.543,0,0,1-.135,1.253,5.354,5.354,0,0,1-.486,1.309,3.4,3.4,0,0,1-1.126,1.154,4.046,4.046,0,0,1-2.146.532" transform="translate(-17.383 -83.333)" fill="#ea2626"/>
        </g>
      </g>
    </g>
  </g>
</svg>
