<svg xmlns="http://www.w3.org/2000/svg" width="74.793" height="48" viewBox="0 0 74.793 48">
  <g id="avis_color" transform="translate(17380 8706)">
    <rect id="Rectangle_7082" data-name="Rectangle 7082" width="74.793" height="48" transform="translate(-17380 -8706)" fill="#fff" opacity="0"/>
    <path id="avis-logo" d="M230.238,238.708a4.443,4.443,0,0,0-3.138-1.3c-1.061,0-2.388.364-2.388,1.719,0,1.135,1.014,1.52,2.631,2.031,2.315.75,5.305,1.719,5.305,5.13,0,3.942-3.16,5.708-6.536,5.708a8.989,8.989,0,0,1-6.392-2.467l2.529-2.6a5.4,5.4,0,0,0,3.863,1.659c1.253,0,2.363-.486,2.363-1.863,0-1.307-1.3-1.743-3.546-2.472-2.169-.7-4.364-1.787-4.364-4.881,0-3.8,3.424-5.371,6.606-5.371a8.533,8.533,0,0,1,5.6,2.1Zm-40.362,6.179h-4.291l2.169-5.879Zm7.041,6.675-6.984-17.129h-4.108l-7.239,17.128h4.559l1.252-3.36h6.615l1.325,3.36Zm14.653-17.128H207.01l-3.955,12.378-4.026-12.378H194.4l6.463,17.128h4.124Zm1.652,17.128h4.148V234.435h-4.148Zm21.234-15.671a1.461,1.461,0,1,0,1.456-1.458,1.443,1.443,0,0,0-1.456,1.457Zm.231,0a1.23,1.23,0,1,1,1.225,1.235,1.23,1.23,0,0,1-1.225-1.235Zm.66.816h.3v-.688h.215l.38.688h.36l-.442-.72a.439.439,0,0,0,.379-.445c0-.353-.3-.48-.617-.48h-.57Zm.3-.926v-.469h.267c.155,0,.328.044.328.224,0,.2-.192.244-.365.244Z" transform="translate(-17550.586 -8925)" fill="#d4002a"/>
  </g>
</svg>
