<svg xmlns="http://www.w3.org/2000/svg" width="88" height="48" viewBox="0 0 88 48">
  <g id="azure" transform="translate(-424 -205)">
    <rect id="Rectangle_6692" data-name="Rectangle 6692" width="88" height="48" transform="translate(424 205)" opacity="0"/>
    <g id="layer1" transform="translate(1107.931 -95.854)">
      <g id="layer1-1" transform="translate(-677.93 313.854)">
        <path id="path21" d="M-6.419,17.089c3.609-.638,6.59-1.165,6.624-1.172L.267,15.9-3.14,11.851C-5.014,9.622-6.548,7.789-6.548,7.779S-3.029-1.93-3.009-1.965c.007-.012,2.4,4.122,5.8,10.021L8.632,18.174l.044.078H-12.981l6.562-1.159Zm41.528-.98a2.882,2.882,0,0,1-2.861-2.8,25.061,25.061,0,0,1-.075-3.514l-.007-2.937h1.459l.006,2.84c.005,2.56.008,2.86.033,3.04a2.693,2.693,0,0,0,.634,1.575,1.818,1.818,0,0,0,1.021.535,3.885,3.885,0,0,0,.98,0,2.165,2.165,0,0,0,1.11-.6,2.935,2.935,0,0,0,.748-1.435l.043-.193,0-2.864,0-2.864H39.7V15.9H38.225v-.714a5.415,5.415,0,0,0-.017-.709.587.587,0,0,0-.084.129,3,3,0,0,1-1.141,1.142,3.2,3.2,0,0,1-1.875.366ZM51.84,16.1a3.865,3.865,0,0,1-1.7-.554,4.132,4.132,0,0,1-1.863-3.21,7.759,7.759,0,0,1-.018-1.636,5.317,5.317,0,0,1,1.045-2.61,5.336,5.336,0,0,1,.631-.631,3.931,3.931,0,0,1,1.61-.769,5.234,5.234,0,0,1,1.306-.076,3.434,3.434,0,0,1,2.315,1.189,4.545,4.545,0,0,1,.935,2.827c.006.185.008.51,0,.721l-.008.385-3.193,0-3.193,0v.142A3.531,3.531,0,0,0,50,13.236a2.964,2.964,0,0,0,.649.95,2.855,2.855,0,0,0,1.619.684,6.313,6.313,0,0,0,1.058-.041,4.483,4.483,0,0,0,1.994-.823c.066-.05.13-.1.141-.1a2.694,2.694,0,0,1,.02.665v.678l-.151.093a5.285,5.285,0,0,1-2.14.742,12.285,12.285,0,0,1-1.353.02Zm2.779-5.717a2.9,2.9,0,0,0-.739-1.949,2.032,2.032,0,0,0-1.127-.547,3.331,3.331,0,0,0-.875.025,2.287,2.287,0,0,0-1.194.635,3.254,3.254,0,0,0-.79,1.265,4.06,4.06,0,0,0-.153.622l-.01.076h4.889ZM11.307,15.876c0-.011,1.088-2.859,2.409-6.33l2.4-6.31h1.544l.064.164c.2.5,4.81,12.482,4.81,12.488s-.37.007-.821.007h-.821l-.665-1.771-.665-1.771H14.209l-.023.06c-.013.033-.3.83-.631,1.77l-.608,1.71h-.823a4.437,4.437,0,0,1-.816-.02ZM19.076,11s-.448-1.216-.995-2.7a22.708,22.708,0,0,1-1.161-3.38c-.038-.208-.057-.214-.08-.024a4.42,4.42,0,0,1-.14.609c-.027.084-.488,1.349-1.024,2.811s-.976,2.665-.976,2.672.984.014,2.187.014,2.187,0,2.187-.005Zm3.958,4.662v-.231L25.7,11.767,28.37,8.1l-2.415-.008-2.415-.008,0-.613,0-.613h6.987v.414l-2.668,3.687c-1.467,2.028-2.668,3.691-2.668,3.695s1.186.008,2.636.008h2.636V15.9H23.034Zm19.577.22c-.006-.006-.011-2.039-.011-4.519V6.858h1.458v.929c0,.511.006.929.014.929a.827.827,0,0,0,.079-.186,3.213,3.213,0,0,1,.814-1.255A2.111,2.111,0,0,1,46.118,6.7a2.387,2.387,0,0,1,.481-.017,2.129,2.129,0,0,1,.669.094l.06.02V8.313l-.172-.086a1.84,1.84,0,0,0-.965-.194,1.748,1.748,0,0,0-.577.113,1.825,1.825,0,0,0-.919.75,4.36,4.36,0,0,0-.61,1.754c-.012.107-.019.981-.022,2.7l0,2.544H43.34C42.945,15.9,42.617,15.891,42.611,15.885Zm-62.026-.032c0-.006,1.606-2.793,3.568-6.194l3.568-6.183L-8.122-.013C-5.835-1.932-3.957-3.5-3.95-3.507a.731.731,0,0,1-.067.168L-8.532,6.345l-4.434,9.511-3.225,0c-1.774,0-3.225,0-3.225-.006Z" transform="translate(19.415 3.507)" fill="#0089d6"/>
      </g>
    </g>
  </g>
</svg>
