<svg xmlns="http://www.w3.org/2000/svg" width="165" height="48" viewBox="0 0 165 48">
  <g id="evidentiq_color" transform="translate(17661 8613)">
    <rect id="Rectangle_6547" data-name="Rectangle 6547" width="165" height="48" transform="translate(-17661 -8613)" fill="#ededed" opacity="0"/>
    <g id="Group_1192" data-name="Group 1192" transform="translate(-17955.963 -8632.206)">
      <g id="logo_right" transform="translate(344.605 32.437)">
        <path id="Path_14" data-name="Path 14" d="M80.345,9.115a.145.145,0,0,1-.1-.03.166.166,0,0,1-.03-.117V.844c0-.049-.008-.08-.025-.091a.178.178,0,0,0-.1-.019H77.319C77.236.734,77.2.7,77.2.623v-.5A.109.109,0,0,1,77.32,0h6.494a.108.108,0,0,1,.122.123v.5c0,.07-.041.11-.122.11H81.268a.179.179,0,0,0-.1.019q-.024.018-.024.091V8.968a.167.167,0,0,1-.03.117.147.147,0,0,1-.1.03Zm-10.946,0h-.061a.211.211,0,0,1-.184-.086L64.2,1.781c-.041-.057-.076-.082-.1-.074s-.045.037-.045.087V8.98q0,.134-.148.134h-.528a.12.12,0,0,1-.148-.148V.146A.169.169,0,0,1,63.255.03.146.146,0,0,1,63.363,0h.516a.348.348,0,0,1,.129.019A.243.243,0,0,1,64.1.109l4.872,7.154a.155.155,0,0,0,.11.07.07.07,0,0,0,.049-.03.124.124,0,0,0,.025-.079V.134c0-.091.041-.134.123-.134h.563a.122.122,0,0,1,.1.031.171.171,0,0,1,.025.1V8.98a.119.119,0,0,1-.134.134Zm-19.087,0a.12.12,0,0,1-.148-.148V.146a.167.167,0,0,1,.03-.117A.146.146,0,0,1,50.3,0H55.65a.1.1,0,0,1,.11.11l-.012.5a.141.141,0,0,1-.024.1.141.141,0,0,1-.1.024h-4.39a.2.2,0,0,0-.117.024q-.03.024-.03.11V4.029a.122.122,0,0,0,.03.1.168.168,0,0,0,.1.024h3.332a.091.091,0,0,1,.11.11v.521a.1.1,0,0,1-.024.08.149.149,0,0,1-.087.018H51.211a.146.146,0,0,0-.091.024.122.122,0,0,0-.03.1V8.257a.1.1,0,0,0,.123.123H55.8a.211.211,0,0,1,.1.019c.02.012.031.042.031.091V9c0,.074-.041.11-.123.11Zm-14.192,0c-.1,0-.148-.053-.148-.16V.134q0-.134.148-.134l1.726.011a5.213,5.213,0,0,1,3.641,1.126,4.479,4.479,0,0,1,1.142,3.356,4.565,4.565,0,0,1-1.217,3.484A5.307,5.307,0,0,1,37.7,9.111ZM36.894.907V8.268c0,.082.049.123.148.123h.531a6.111,6.111,0,0,0,2.357-.378,2.532,2.532,0,0,0,1.3-1.223,5.14,5.14,0,0,0,.418-2.251,5.068,5.068,0,0,0-.412-2.251,2.412,2.412,0,0,0-1.247-1.163A6.368,6.368,0,0,0,37.753.739h-.76c-.066,0-.1.055-.1.167ZM27.251,9.115a.218.218,0,0,1-.134-.03.148.148,0,0,1-.037-.117V.146A.167.167,0,0,1,27.111.03a.146.146,0,0,1,.1-.03h.661a.122.122,0,0,1,.1.031A.2.2,0,0,1,28,.147V8.934a.149.149,0,0,1-.186.184Zm-11.514,0q-.234,0-.269-.148L12.38.158A.134.134,0,0,1,12.368.1a.088.088,0,0,1,.037-.07A.13.13,0,0,1,12.494,0h.627a.17.17,0,0,1,.184.123L16.011,7.9c.024.07.057.11.1.11s.061-.041.087-.123L18.963.109a.152.152,0,0,1,.16-.11h.563a.106.106,0,0,1,.091.043.1.1,0,0,1,.006.1L16.624,8.955a.218.218,0,0,1-.234.16Zm-15.6,0a.167.167,0,0,1-.117-.03A.166.166,0,0,1,0,8.968V.146A.167.167,0,0,1,.029.03.146.146,0,0,1,.133,0H5.486A.1.1,0,0,1,5.6.109l-.015.5a.141.141,0,0,1-.024.1.141.141,0,0,1-.1.024H1.068A.2.2,0,0,0,.951.76Q.921.784.921.87V4.029a.122.122,0,0,0,.03.1.168.168,0,0,0,.1.023H4.389a.091.091,0,0,1,.11.11v.523a.1.1,0,0,1-.024.08.149.149,0,0,1-.087.018H1.043a.147.147,0,0,0-.091.024.122.122,0,0,0-.03.1V8.257a.141.141,0,0,0,.024.1.141.141,0,0,0,.1.024H5.631a.218.218,0,0,1,.1.019q.03.018.03.091V9c0,.074-.041.11-.123.11Z" transform="translate(0.199 0.126)" fill="#3c5469"/>
        <path id="Path_15" data-name="Path 15" d="M14.591,10.41a3.869,3.869,0,0,1-1.138-1.1.134.134,0,0,0-.116-.06.245.245,0,0,0-.07.011,5,5,0,0,1-.971.1,3.5,3.5,0,0,1-2.8-1.2A5.216,5.216,0,0,1,8.476,4.7,5.346,5.346,0,0,1,9.49,1.217,3.469,3.469,0,0,1,12.3,0,3.447,3.447,0,0,1,15.1,1.22,5.36,5.36,0,0,1,16.109,4.7a6.309,6.309,0,0,1-.446,2.506,3.517,3.517,0,0,1-1.337,1.6.141.141,0,0,0-.061.11.659.659,0,0,0,.24.4,2.5,2.5,0,0,0,.622.436A2.326,2.326,0,0,0,15.9,10c.075.008.11.045.11.11v.44a.17.17,0,0,1-.07.154.451.451,0,0,1-.227.042,2.26,2.26,0,0,1-1.126-.339ZM10.164,1.739a5.152,5.152,0,0,0-.719,2.986,4.924,4.924,0,0,0,.713,2.912,2.492,2.492,0,0,0,2.139.97,2.492,2.492,0,0,0,2.14-.977A4.983,4.983,0,0,0,15.151,4.7a5.1,5.1,0,0,0-.719-2.967,2.469,2.469,0,0,0-2.133-1,2.462,2.462,0,0,0-2.134,1.01ZM.171,9.236A.219.219,0,0,1,.037,9.2.148.148,0,0,1,0,9.088V.268A.165.165,0,0,1,.03.15a.146.146,0,0,1,.1-.031H.8A.123.123,0,0,1,.9.15.2.2,0,0,1,.921.268V9.052A.215.215,0,0,1,.884,9.2a.215.215,0,0,1-.148.037Z" transform="translate(91.368 0.006)" fill="#14ccad" opacity="0.999"/>
        <path id="Path_16" data-name="Path 16" d="M94.621,3.807a2.52,2.52,0,0,1-.5-1.618,2.462,2.462,0,0,1,.5-1.606,1.717,1.717,0,0,1,2.58,0,2.462,2.462,0,0,1,.5,1.605,2.52,2.52,0,0,1-.5,1.618,1.688,1.688,0,0,1-2.58,0ZM95.01.931a2.119,2.119,0,0,0-.337,1.254c0,1.06.487,1.745,1.24,1.745s1.24-.684,1.24-1.745A2.118,2.118,0,0,0,96.817.931a1.112,1.112,0,0,0-1.8,0ZM84.761,2.2A1.963,1.963,0,0,1,86.684-.006a1.618,1.618,0,0,1,1.208.525L87.6.87a1.176,1.176,0,0,0-.9-.4c-.844,0-1.387.658-1.387,1.719s.5,1.739,1.392,1.739a1.125,1.125,0,0,0,.755-.25V2.57h-.888V2.122h1.374V3.91a1.771,1.771,0,0,1-1.292.492C85.547,4.4,84.761,3.585,84.761,2.2Zm-10.968,0c0-1.372.8-2.209,1.861-2.209a1.548,1.548,0,0,1,1.152.525L76.514.87a1.135,1.135,0,0,0-.851-.4c-.792,0-1.316.658-1.316,1.719s.5,1.739,1.3,1.739a1.251,1.251,0,0,0,.971-.478l.291.337a1.607,1.607,0,0,1-1.285.615c-1.047.006-1.828-.813-1.828-2.2ZM57.4,2.2c0-1.372.8-2.209,1.861-2.209a1.548,1.548,0,0,1,1.152.525L60.124.87a1.132,1.132,0,0,0-.855-.4c-.792,0-1.316.658-1.316,1.719s.5,1.739,1.3,1.739a1.251,1.251,0,0,0,.971-.478l.291.337a1.605,1.605,0,0,1-1.285.615c-1.047,0-1.829-.82-1.829-2.2Zm-38.691,0C18.705.831,19.5,0,20.563,0a1.548,1.548,0,0,1,1.153.521L21.424.87a1.132,1.132,0,0,0-.852-.4c-.791,0-1.314.66-1.314,1.72s.5,1.739,1.3,1.739a1.251,1.251,0,0,0,.97-.478l.292.337a1.605,1.605,0,0,1-1.285.615c-1.047,0-1.829-.817-1.829-2.2ZM0,2.2C0,.831.8,0,1.861,0A1.553,1.553,0,0,1,3.013.521L2.721.873a1.135,1.135,0,0,0-.852-.4c-.791,0-1.316.66-1.316,1.719s.5,1.74,1.3,1.74a1.25,1.25,0,0,0,.969-.478l.291.337A1.605,1.605,0,0,1,1.829,4.4C.782,4.4,0,3.585,0,2.2Zm99.478.367V.072h.533V2.585c0,1.023.422,1.346.973,1.346s.994-.321.994-1.346V.072h.511v2.5c0,1.365-.649,1.835-1.5,1.835s-1.506-.471-1.506-1.833Zm-46.443,1.2.318-.371a1.626,1.626,0,0,0,1.157.527c.549,0,.875-.281.875-.692,0-.435-.3-.573-.7-.748l-.6-.269a1.2,1.2,0,0,1-.848-1.1A1.2,1.2,0,0,1,54.557,0a1.718,1.718,0,0,1,1.232.527l-.281.348a1.329,1.329,0,0,0-.955-.4c-.471,0-.781.241-.781.622,0,.409.363.563.694.7l.6.262a1.18,1.18,0,0,1,.864,1.138A1.275,1.275,0,0,1,54.5,4.406a1.994,1.994,0,0,1-1.46-.633Zm37.334.554h-.536V.072h1.314c.974,0,1.467.4,1.467,1.2a1.153,1.153,0,0,1-.943,1.2l1.066,1.857h-.606L91.124,2.53h-.758v1.8h0Zm0-2.238h.7c.673,0,1.01-.276,1.01-.82,0-.525-.312-.758-1.01-.758h-.7Zm14.672,2.237h-.533V.072h1.2c1.055,0,1.572.409,1.572,1.252s-.563,1.316-1.548,1.316h-.689V4.324Zm0-2.127h.622c.741,0,1.083-.281,1.083-.875,0-.578-.321-.813-1.109-.813h-.6Zm-55.9,2.127-.4-1.3H47.218l-.4,1.3h-.544L47.69.072h.6l1.417,4.255ZM47.554,1.95l-.2.648H48.61l-.2-.648c-.151-.476-.281-.943-.422-1.434h-.025c-.132.492-.269.959-.417,1.434ZM41.068,4.326l-.4-1.3h-1.53l-.4,1.3h-.544L39.614.072h.6l1.417,4.255ZM39.479,1.95l-.2.648h1.26l-.2-.648c-.15-.476-.281-.943-.422-1.434h-.027c-.13.492-.264.959-.415,1.434ZM34,4.326V.072h1.048a1.845,1.845,0,0,1,1.979,2.11,2.286,2.286,0,0,1-.5,1.578,1.861,1.861,0,0,1-1.453.563Zm.533-.444H35a1.366,1.366,0,0,0,1.1-.447,1.906,1.906,0,0,0,.367-1.252c0-1.09-.508-1.668-1.468-1.668h-.476Zm-8.723.444-.4-1.3H23.877l-.4,1.3h-.544L24.35.072h.6l1.417,4.255ZM24.213,1.95l-.2.649h1.26l-.2-.649c-.151-.476-.281-.943-.422-1.434h-.026C24.5,1.007,24.364,1.478,24.213,1.95ZM78.577,4.326V.072h2.416V.53H79.112V1.866H80.7v.452H79.112V3.866h1.946v.457Zm-7.13,0L69.93,1.649,69.476.771h-.023c.027.431.07.884.07,1.33V4.326H69.01V.072h.551l1.517,2.673.454.881h.025c-.027-.429-.07-.907-.07-1.353V.072h.5V4.326Zm-6.691,0V.072h2.416V.53H65.288V1.866h1.588v.452H65.288V3.866h1.946v.457Zm-2.573,0V.072h.533V4.326Zm-18.541,0V.53h-1.27V.072h3.069V.53H44.174v3.8Zm-15.81,0V.072h.532V3.866h1.829v.459Zm-11.452,0V.072h.532V4.326Zm-2.592,0L12.268,1.649l-.45-.878h-.025c.027.431.07.884.07,1.33V4.326h-.506V.072h.551l1.517,2.673.453.881H13.9c-.027-.429-.07-.907-.07-1.353V.072h.505V4.326Zm-5.006,0V.072h.533V4.326Zm-3.994,0V.072h.53V3.866H7.147v.459Z" transform="translate(0 16.961)" fill="#749299" opacity="0.998"/>
      </g>
      <path id="logo_left" d="M14.14,28.112a14,14,0,1,1,5.465-1.1,14,14,0,0,1-5.465,1.1ZM6.315,22.673h0a.606.606,0,0,1-.1.087l-.049.032a9,9,0,0,0,7.738,4.8h.462a9,9,0,0,0,7.711-4.753.6.6,0,0,1-.155-.152,9.261,9.261,0,0,1-7.375-.352.619.619,0,0,1-.064.054.6.6,0,0,1-.76-.054,9.263,9.263,0,0,1-7.407.337Zm15.947.245a9.232,9.232,0,0,1-1.618,2.177,9.133,9.133,0,0,1-3.266,2.11,13.526,13.526,0,0,0,9.877-9.87,9.122,9.122,0,0,1-2.11,3.262A9.234,9.234,0,0,1,23,22.193a.6.6,0,0,1-.736.722ZM1.021,17.332h0A13.526,13.526,0,0,0,10.9,27.2a9.26,9.26,0,0,1-4.916-4.343.6.6,0,0,1-.708-.668,9.242,9.242,0,0,1-2.147-1.6,9.126,9.126,0,0,1-2.11-3.262Zm16.717,1.126a9.314,9.314,0,0,1-3.014,3.3.6.6,0,0,1-.051.417,8.926,8.926,0,0,0,3.973.921c.231,0,.464-.008.693-.026.148-.011.3-.026.454-.046.084-.011.157-.021.223-.032a8.969,8.969,0,0,0,1.829-.48.6.6,0,0,1,.732-.751,8.989,8.989,0,0,0-.407-7.236.6.6,0,0,1-.255,0,9.307,9.307,0,0,1-3.465,3.206.6.6,0,0,1-.714.739ZM5.871,21.671h0a.6.6,0,0,1,.552.835,9.035,9.035,0,0,0,7.184-.331.6.6,0,0,1-.051-.417,9.319,9.319,0,0,1-1.419-1.164,9.225,9.225,0,0,1-1.6-2.134.6.6,0,0,1-.719-.741A9.308,9.308,0,0,1,6.359,14.51a.606.606,0,0,1-.158.021.593.593,0,0,1-.1-.008A9.014,9.014,0,0,0,5.682,21.7.6.6,0,0,1,5.871,21.671Zm17.047-15.5a.606.606,0,0,1-.155.161l-.008,0-.008,0a9.239,9.239,0,0,1-.276,7.16.611.611,0,0,1,.07.083.6.6,0,0,1-.141.836.522.522,0,0,1-.046.03,9.091,9.091,0,0,1,.732,2,9.268,9.268,0,0,1,.25,2.146,9.167,9.167,0,0,1-.587,3.242.6.6,0,0,1,.155.151l.012.018,0,.006a9,9,0,0,0,4.726-7.688v-.464a8.952,8.952,0,0,0-2.636-6.128,9.083,9.083,0,0,0-1.332-1.1c-.119-.081-.243-.16-.366-.234S23.051,6.246,22.918,6.174ZM5.372,6.165a9,9,0,0,0-4.741,7.7v.464A9,9,0,0,0,5.333,22a.594.594,0,0,1,.176-.211,9.17,9.17,0,0,1-.571-3.2,9.27,9.27,0,0,1,.249-2.141,9.09,9.09,0,0,1,.73-2,.6.6,0,0,1-.118-.969A9.241,9.241,0,0,1,5.53,6.331a.606.606,0,0,1-.141-.141l-.013-.02ZM14.139,21.3h0a.6.6,0,0,1,.492.253l.009.015.006.01a9.07,9.07,0,0,0,2.91-3.189.6.6,0,0,1-.172-.163l-.007-.011,0-.008a9.277,9.277,0,0,1-6.464,0,.6.6,0,0,1-.155.162l-.015.009-.011.008a9.052,9.052,0,0,0,2.884,3.174l.013.008.013.008a.6.6,0,0,1,.505-.277ZM10.4,17.275a.6.6,0,0,1,.581.748,9.044,9.044,0,0,0,6.31,0,.606.606,0,0,1,.233-.639.594.594,0,0,1,.345-.11.606.606,0,0,1,.181.027,9.015,9.015,0,0,0,0-6.414.6.6,0,0,1-.76-.725,9.042,9.042,0,0,0-6.314,0,.6.6,0,0,1-.232.644.6.6,0,0,1-.346.11.606.606,0,0,1-.178-.027,9.015,9.015,0,0,0,0,6.411.6.6,0,0,1,.176-.024Zm7.972-6.626a.591.591,0,0,1-.141.151,9.256,9.256,0,0,1,0,6.592.606.606,0,0,1,.134.134l0,.006v.012a9.055,9.055,0,0,0,3.363-3.1.6.6,0,0,1-.134-.892,9.075,9.075,0,0,0-3.222-2.9Zm-8.473,0a9.075,9.075,0,0,0-3.227,2.909l.006.008.015.019a.6.6,0,0,1-.141.836l-.006,0-.006,0A9.054,9.054,0,0,0,9.908,17.54a.606.606,0,0,1,.145-.149,9.254,9.254,0,0,1,0-6.586.6.6,0,0,1-.134-.141l-.006-.008Zm-3.7,2.68a.6.6,0,0,1,.325.1A9.3,9.3,0,0,1,9.82,10.476a.6.6,0,0,1,.232-.643.594.594,0,0,1,.345-.11.606.606,0,0,1,.141.017A9.3,9.3,0,0,1,13.608,6.4a.6.6,0,0,1-.053-.412,9.038,9.038,0,0,0-7.1-.317.6.6,0,0,1-.574.774.609.609,0,0,1-.174-.025,9.012,9.012,0,0,0,.256,6.961.594.594,0,0,1,.239-.05Zm11.668-3.61a.6.6,0,0,1,.581.751,9.3,9.3,0,0,1,3.291,2.947.6.6,0,0,1,.31-.087.606.606,0,0,1,.255.056,9.012,9.012,0,0,0,.261-6.964.6.6,0,0,1-.732-.741,8.979,8.979,0,0,0-3.2-.584c-.231,0-.464.008-.693.026-.148.011-.3.026-.454.046-.084.011-.157.021-.223.032a8.949,8.949,0,0,0-2.547.79.6.6,0,0,1-.053.409A9.3,9.3,0,0,1,17.74,9.734a.6.6,0,0,1,.132-.012Zm4.546-4.48A.6.6,0,0,1,23,5.987a9.23,9.23,0,0,1,2.15,1.6,9.122,9.122,0,0,1,2.11,3.267A13.526,13.526,0,0,0,17.379.989,9.133,9.133,0,0,1,20.645,3.1a9.23,9.23,0,0,1,1.618,2.17.6.6,0,0,1,.156-.021ZM10.9.985a13.526,13.526,0,0,0-9.881,9.874A9.127,9.127,0,0,1,3.131,7.6,9.241,9.241,0,0,1,5.3,5.986a.6.6,0,0,1,.582-.741.61.61,0,0,1,.141.017A9.264,9.264,0,0,1,10.9.989Zm2.82,5.571a9.065,9.065,0,0,0-3,3.255.594.594,0,0,1,.17.16l.006.008,0,.006a9.277,9.277,0,0,1,6.476,0,.6.6,0,0,1,.15-.155l.023-.015.014-.007a9.064,9.064,0,0,0-3-3.254.617.617,0,0,1-.07.056.6.6,0,0,1-.767-.056Zm.414-1.032h0a.6.6,0,0,1,.492.253.2.2,0,0,1,.016.025l0,.008A9.263,9.263,0,0,1,21.922,5.5a.59.59,0,0,1,.145-.148l.006,0,.006,0A9,9,0,0,0,14.371.6h-.465A9,9,0,0,0,6.2,5.34a.6.6,0,0,1,.167.16,9.263,9.263,0,0,1,7.255.312.6.6,0,0,1,.511-.286Z" transform="translate(302.801 29.094)" fill="#14ccad"/>
    </g>
  </g>
</svg>
