<svg xmlns="http://www.w3.org/2000/svg" width="88" height="48" viewBox="0 0 88 48">
  <g id="figma" transform="translate(-712 -205)">
    <rect id="Rectangle_6695" data-name="Rectangle 6695" width="88" height="48" transform="translate(712 205)" opacity="0"/>
    <g id="figma-ar21" transform="translate(726.968 214.658)">
      <path id="Path_23164" data-name="Path 23164" d="M5.658,13.464a4.457,4.457,0,0,0,4.455-4.455V4.554H5.658a4.455,4.455,0,1,0,0,8.91Z" transform="translate(0.004 14.015)" fill="#0acf83"/>
      <path id="Path_23165" data-name="Path 23165" d="M1.2,7.1A4.457,4.457,0,0,1,5.657,2.647h4.455v8.915H5.657A4.457,4.457,0,0,1,1.2,7.107Z" transform="translate(0 7.008)" fill="#a259ff"/>
      <path id="Path_23166" data-name="Path 23166" d="M1.2,5.2A4.457,4.457,0,0,1,5.657.74h4.455V9.655H5.657A4.457,4.457,0,0,1,1.2,5.2Z" fill="#f24e1e"/>
      <path id="Path_23167" data-name="Path 23167" d="M3.1.74H7.555a4.455,4.455,0,0,1,0,8.91H3.1Z" transform="translate(6.975)" fill="#ff7262"/>
      <path id="Path_23168" data-name="Path 23168" d="M12.057,7.1a4.478,4.478,0,1,0-.047,0Z" transform="translate(2.563 11.511)" fill="#1abcfe"/>
      <path id="Path_23169" data-name="Path 23169" d="M6.058,2.32v9.34h1.2V7.2h2.889V6.041H7.259V3.489h3.754V2.32Zm7.129,1.9a.784.784,0,0,0,.785-.785.748.748,0,0,0-.785-.739.787.787,0,0,0-.785.785.8.8,0,0,0,.234.561.766.766,0,0,0,.561.234ZM12.579,5.4v6.26h1.155V5.4H12.542Zm5.666-.187a2.824,2.824,0,0,0-2.711,2.954,2.822,2.822,0,0,0,2.711,2.945,2.384,2.384,0,0,0,1.772-.743V11.2a1.963,1.963,0,0,1-.542,1.342,1.87,1.87,0,0,1-1.337.561,1.963,1.963,0,0,1-1.066-.355l-.608,1.042a3.085,3.085,0,0,0,4.754-2.6V5.39h-1.2v.561A2.384,2.384,0,0,0,18.245,5.2ZM16.74,8.163a1.647,1.647,0,1,1,3.282,0,1.647,1.647,0,1,1-3.282,0Z" transform="translate(17.844 5.806)" fill="#fff"/>
      <path id="Path_23170" data-name="Path 23170" d="M12.2,4.163a1.309,1.309,0,0,0-1.3,1.3V9.432H9.7V3.168h1.2V3.7a1.9,1.9,0,0,1,1.552-.757A2.086,2.086,0,0,1,14.306,4a2.36,2.36,0,0,1,1.87-1.061A2.27,2.27,0,0,1,18.4,5.407V9.394H17.2V5.421a1.3,1.3,0,1,0-2.576,0V9.385H13.469V5.425a1.309,1.309,0,0,0-1.3-1.3Zm12.622-.327A2.9,2.9,0,0,0,22.7,2.943a3.12,3.12,0,0,0-3.039,3.272A3.129,3.129,0,0,0,22.7,9.488,2.9,2.9,0,0,0,24.818,8.6v.711h1.2V3.041h-1.2ZM20.846,6.267a1.993,1.993,0,1,1,3.973,0,1.993,1.993,0,1,1-3.973,0Z" transform="translate(31.198 8.077)" fill="#fff"/>
    </g>
  </g>
</svg>
