<svg xmlns="http://www.w3.org/2000/svg" width="145.344" height="48.002" viewBox="0 0 145.344 48.002">
  <g id="fp_color" transform="translate(17651 8789)">
    <rect id="Rectangle_6544" data-name="Rectangle 6544" width="145.343" height="48.002" transform="translate(-17651 -8789)" fill="#ededed" opacity="0"/>
    <g id="fp_logo" data-name="fp logo" transform="translate(-17643 -8779)">
      <path id="Path_1" data-name="Path 1" d="M6.991,0A3.933,3.933,0,0,0,3.15,3.4L0,22.259H.965l3.108-18.7A2.987,2.987,0,0,1,6.991,1.006h12.3L19.462,0Z" fill="#fcaf17"/>
      <path id="Path_2" data-name="Path 2" d="M8.135,19.22l.9-5.512h4.24a.342.342,0,0,1,.273.125.374.374,0,0,1,.084.294l-.8,4.757a.364.364,0,0,1-.356.316H8.135Zm5.144-7.462a2.1,2.1,0,0,1,1.637.8,2.374,2.374,0,0,1,.463,1.844L14.5,19.408a2.059,2.059,0,0,1-1.994,1.74H7.82l.147-.944h4.514a1.323,1.323,0,0,0,1.281-1.132l.8-4.756a1.412,1.412,0,0,0-.293-1.111,1.264,1.264,0,0,0-1.009-.483H5.49l.169-.943h7.62v-.021Zm3.779-1.048a5.011,5.011,0,0,0-3.884-1.887H8.031l.5-2.975H19.576l.169-1.007H8.366a.762.762,0,0,0-.735.65L7.085,8.824h-.9l.63-3.73A1.389,1.389,0,0,1,8.156,3.9H19.913l.167-1.006H8.135A2.338,2.338,0,0,0,5.847,4.9L2.8,23.181h.965l1.574-9.494h.819L3.621,28.966h.966l2.54-15.279h.944L5.532,28.966H6.5l1.134-6.832H12.5a3.007,3.007,0,0,0,2.938-2.558l.882-5.009a3.37,3.37,0,0,0-.672-2.662,3.045,3.045,0,0,0-2.372-1.174H5.847l.168-.943H13.2a4.13,4.13,0,0,1,3.17,1.53,4.493,4.493,0,0,1,.9,3.521l-.776,4.632a4.178,4.178,0,0,1-4.073,3.583H8.324L7.38,28.944h.965l.8-4.883h3.275a5.121,5.121,0,0,0,5-4.4l.777-4.632A5.52,5.52,0,0,0,17.058,10.71Z" transform="translate(-0.934 -0.964)" fill="#fcaf17"/>
      <path id="Path_3" data-name="Path 3" d="M64.089,7.241H61.108V9.736h2.436l-.23,1.048H61.108v3.27H59.892V6.193H64.3Z" transform="translate(-19.961 -2.064)"/>
      <path id="Path_4" data-name="Path 4" d="M72.444,14.032H71.226V6.193h1.218Z" transform="translate(-23.739 -2.064)"/>
      <path id="Path_5" data-name="Path 5" d="M83.392,7.241H81.02v6.812H79.8V7.241H77.43V6.193h5.983V7.241Z" transform="translate(-25.806 -2.064)"/>
      <path id="Path_6" data-name="Path 6" d="M97.531,14.032H96.459L91.924,8.1h-.042l.042,1.845v4.087H90.749V6.193H91.84l4.5,5.91h.02l-.02-1.823V6.193h1.174v7.839Z" transform="translate(-30.245 -2.064)"/>
      <path id="Path_7" data-name="Path 7" d="M110.545,14.032h-4.178V6.193h4.408l-.231,1.048h-2.982V9.61h2.458l-.23,1.048h-2.227V13h3.213Z" transform="translate(-35.45 -2.064)"/>
      <path id="Path_8" data-name="Path 8" d="M120.022,14.116a4.539,4.539,0,0,1-2.476-.713V12.208a4.79,4.79,0,0,0,2.436.839c.691,0,1.426-.315,1.426-1.069,0-.671-.713-1.028-1.238-1.321-.985-.566-2.456-1.216-2.456-2.6A2.215,2.215,0,0,1,120.106,6,3.353,3.353,0,0,1,122,6.529V7.639a3.682,3.682,0,0,0-1.891-.587,1.02,1.02,0,0,0-1.153.965c0,.691.945,1.174,1.513,1.488.987.545,2.225,1.09,2.225,2.411C122.67,13.424,121.388,14.116,120.022,14.116Z" transform="translate(-39.176 -2.001)"/>
      <path id="Path_9" data-name="Path 9" d="M131.99,14.116a4.542,4.542,0,0,1-2.478-.713V12.208a4.785,4.785,0,0,0,2.434.839c.7,0,1.431-.315,1.431-1.069,0-.671-.715-1.028-1.24-1.321-.987-.566-2.458-1.216-2.458-2.6A2.218,2.218,0,0,1,132.074,6a3.349,3.349,0,0,1,1.889.524V7.639a3.672,3.672,0,0,0-1.889-.587,1.02,1.02,0,0,0-1.155.965c0,.691.946,1.174,1.512,1.488.986.545,2.226,1.09,2.226,2.411C134.656,13.424,133.376,14.116,131.99,14.116Z" transform="translate(-43.164 -2.001)"/>
      <path id="Path_10" data-name="Path 10" d="M76.643,31.855H72.36V24.016h1.218v6.813h3.3Z" transform="translate(-24.117 -8.004)"/>
      <path id="Path_11" data-name="Path 11" d="M89.888,31.855H88.671L88,30.1H84.724l-.692,1.759H82.814l3.022-7.838h1.009ZM87.6,29.09l-.734-1.93-.5-1.508h-.02l-.5,1.508L85.1,29.09Z" transform="translate(-27.601 -8.004)"/>
      <path id="Path_12" data-name="Path 12" d="M101.907,24.016l-2.686,4.549v3.289H98V28.566l-2.688-4.549h1.3l1.972,3.4h.019l1.975-3.4Z" transform="translate(-31.767 -8.004)"/>
      <path id="Path_13" data-name="Path 13" d="M112.507,31.951a3.971,3.971,0,0,1-4.22-4.025,4.027,4.027,0,0,1,4.346-4.065,6.128,6.128,0,0,1,2.456.566v1.152a5.829,5.829,0,0,0-2.456-.67,2.989,2.989,0,1,0,0,5.975,3.483,3.483,0,0,0,1.574-.4v-1.53H112.3V27.905h3.084v3.017A4.514,4.514,0,0,1,112.507,31.951Z" transform="translate(-36.09 -7.952)"/>
      <path id="Path_14" data-name="Path 14" d="M129.889,31.855h-1.406l-1.975-3.311H125.29v3.311h-1.2V24.016h2.688a2.261,2.261,0,0,1,.965,4.359Zm-3.213-6.79h-1.385v2.454h1.385a1.182,1.182,0,0,0,1.28-1.215A1.157,1.157,0,0,0,126.676,25.064Z" transform="translate(-41.359 -8.004)"/>
      <path id="Path_15" data-name="Path 15" d="M144.784,27.906a4.095,4.095,0,1,1-4.094-4.045A3.99,3.99,0,0,1,144.784,27.906Zm-6.929,0a2.838,2.838,0,1,0,5.668,0,2.839,2.839,0,1,0-5.668,0Z" transform="translate(-45.525 -7.952)"/>
      <path id="Path_16" data-name="Path 16" d="M159.917,29.154a3.005,3.005,0,0,1-6,0V24.016h1.217v5.009a1.81,1.81,0,1,0,3.612,0V24.016h1.218v5.137Z" transform="translate(-51.297 -8.004)"/>
      <path id="Path_17" data-name="Path 17" d="M175.211,31.855h-1.069l-4.534-5.931h-.042l.042,1.846v4.085h-1.175V24.016h1.091l4.493,5.911h.022l-.022-1.822V24.016h1.175v7.838Z" transform="translate(-56.136 -8.004)"/>
      <path id="Path_18" data-name="Path 18" d="M186.947,31.855h-2.834V24.016h2.772a3.721,3.721,0,0,1,3.82,3.921A3.691,3.691,0,0,1,186.947,31.855Zm-.085-6.79h-1.531v5.765h1.531a2.7,2.7,0,0,0,2.666-2.913A2.671,2.671,0,0,0,186.863,25.064Z" transform="translate(-61.362 -8.004)"/>
      <path id="Path_19" data-name="Path 19" d="M61.171,25.075h1.386a1.194,1.194,0,0,1,1.281,1.26,1.215,1.215,0,0,1-1.281,1.255h-.378v1.048h.4a2.286,2.286,0,0,0,2.457-2.3,2.251,2.251,0,0,0-2.394-2.286h-2.75v7.816h1.28Z" transform="translate(-19.961 -8.015)"/>
    </g>
  </g>
</svg>
