<svg xmlns="http://www.w3.org/2000/svg" xmlns:xlink="http://www.w3.org/1999/xlink" width="88px" height="48px" viewBox="0 0 88 48"><g id="surface1"><path style=" stroke:none;fill-rule:evenodd;fill:rgb(98.823529%,98.823529%,98.823529%);fill-opacity:1;" d="M 42.246094 12.667969 C 36.875 13.183594 35.328125 20.097656 39.992188 22.761719 C 42.125 23.980469 45.21875 23.527344 46.632812 21.789062 C 47.511719 20.707031 48.003906 18.914062 47.753906 17.71875 L 47.714844 17.539062 L 42.726562 17.539062 L 42.726562 19.027344 L 46.242188 19.027344 L 46.210938 19.253906 C 45.789062 22.28125 41.410156 22.890625 39.589844 20.179688 C 37.207031 16.625 41.804688 12.324219 45.105469 15.019531 C 45.433594 15.285156 45.355469 15.3125 45.929688 14.738281 C 46.5 14.175781 46.488281 14.199219 46.21875 13.949219 C 45.261719 13.066406 43.625 12.535156 42.246094 12.667969 M 71.003906 18.210938 L 71.003906 23.351562 L 71.769531 23.351562 C 72.335938 23.351562 72.535156 23.335938 72.550781 23.292969 C 72.5625 23.257812 72.570312 20.949219 72.566406 18.164062 L 72.566406 13.09375 L 71.785156 13.078125 L 71.003906 13.066406 L 71.003906 18.210938 M 66.492188 16.511719 C 63.59375 16.8125 62.300781 20.269531 64.296875 22.375 C 65.453125 23.59375 67.222656 23.808594 68.253906 22.859375 L 68.460938 22.667969 L 68.460938 23.078125 C 68.460938 24.285156 67.941406 24.992188 66.945312 25.132812 C 66.199219 25.238281 65.414062 24.839844 65.082031 24.179688 L 64.960938 23.9375 L 64.265625 24.226562 L 63.570312 24.519531 L 63.691406 24.761719 C 65.035156 27.417969 69.066406 27.105469 69.78125 24.292969 C 69.929688 23.703125 69.949219 23.199219 69.949219 19.976562 L 69.949219 16.722656 L 68.460938 16.722656 L 68.460938 17.257812 L 68.230469 17.066406 C 67.820312 16.726562 67.109375 16.449219 66.730469 16.488281 C 66.691406 16.492188 66.585938 16.503906 66.492188 16.511719 M 50.753906 16.621094 C 47.183594 17.644531 47.355469 22.738281 50.984375 23.472656 C 54.628906 24.214844 56.753906 19.386719 53.769531 17.148438 C 53.027344 16.59375 51.679688 16.359375 50.753906 16.621094 M 58.210938 16.628906 C 55.585938 17.375 54.746094 20.582031 56.671875 22.515625 C 58.898438 24.746094 62.652344 23.148438 62.652344 19.96875 C 62.652344 17.65625 60.449219 15.996094 58.210938 16.628906 M 75.660156 16.640625 C 73.929688 17.15625 72.957031 18.898438 73.335938 20.796875 C 73.882812 23.515625 77.285156 24.484375 79.273438 22.480469 C 79.789062 21.964844 79.808594 22.054688 79.089844 21.578125 L 78.484375 21.183594 L 78.246094 21.449219 C 77.371094 22.429688 75.714844 22.300781 75.144531 21.210938 C 75.09375 21.113281 75.183594 21.070312 77.285156 20.203125 C 78.492188 19.707031 79.546875 19.273438 79.632812 19.238281 L 79.785156 19.171875 L 79.601562 18.726562 C 78.914062 17.035156 77.265625 16.164062 75.660156 16.640625 M 51.953125 17.976562 C 53.171875 18.234375 53.917969 19.539062 53.527344 20.722656 C 52.8125 22.882812 49.605469 22.414062 49.464844 20.132812 C 49.378906 18.765625 50.617188 17.691406 51.953125 17.976562 M 59.503906 17.996094 C 61.042969 18.398438 61.621094 20.289062 60.566406 21.464844 C 59.53125 22.617188 57.5 22.171875 57.019531 20.683594 C 56.507812 19.117188 57.925781 17.585938 59.503906 17.996094 M 67.464844 18.082031 C 67.855469 18.273438 68.132812 18.542969 68.34375 18.941406 L 68.53125 19.292969 L 68.53125 19.988281 C 68.53125 21.167969 67.960938 21.90625 66.953125 22.03125 C 65.019531 22.273438 64.105469 19.390625 65.753906 18.253906 C 66.277344 17.894531 66.941406 17.828125 67.464844 18.082031 M 77.269531 18.035156 C 77.484375 18.136719 77.871094 18.488281 77.871094 18.582031 C 77.871094 18.601562 77.582031 18.738281 77.234375 18.878906 C 76.882812 19.023438 76.199219 19.308594 75.714844 19.515625 L 74.832031 19.886719 L 74.859375 19.558594 C 74.953125 18.429688 76.296875 17.582031 77.269531 18.035156 M 50.125 27.855469 C 49.796875 28.722656 49.066406 30.664062 48.5 32.167969 C 47.933594 33.675781 47.410156 35.074219 47.332031 35.28125 L 47.195312 35.652344 L 48.574219 35.652344 L 49.472656 33.105469 L 53.320312 33.105469 L 54.226562 35.652344 L 54.910156 35.652344 C 55.285156 35.652344 55.59375 35.644531 55.59375 35.632812 C 55.59375 35.621094 55.386719 35.066406 55.132812 34.394531 C 54.882812 33.726562 54.105469 31.664062 53.410156 29.8125 C 52.714844 27.964844 52.132812 26.414062 52.113281 26.367188 C 52.082031 26.292969 52.003906 26.28125 51.398438 26.28125 L 50.714844 26.28125 L 50.125 27.855469 M 61.074219 28.175781 L 61.09375 30.066406 L 60.890625 29.835938 C 59.984375 28.828125 58.210938 28.765625 57.09375 29.703125 C 55.050781 31.414062 55.738281 35.140625 58.207031 35.769531 C 59.132812 36.007812 60.210938 35.734375 60.832031 35.109375 L 61.113281 34.820312 L 61.113281 35.652344 L 62.316406 35.652344 L 62.316406 26.28125 L 61.054688 26.28125 L 61.074219 28.175781 M 51.96875 29.359375 C 52.25 30.136719 52.578125 31.039062 52.695312 31.359375 C 52.808594 31.683594 52.90625 31.957031 52.90625 31.972656 C 52.90625 31.988281 52.222656 32 51.390625 32 C 50.53125 32 49.878906 31.980469 49.890625 31.957031 C 49.898438 31.933594 50.238281 31.003906 50.648438 29.894531 C 51.054688 28.78125 51.40625 27.886719 51.425781 27.90625 C 51.445312 27.925781 51.6875 28.578125 51.96875 29.359375 M 65.4375 29.070312 C 64.183594 29.242188 63.417969 29.980469 63.417969 31.023438 C 63.417969 31.996094 64.023438 32.492188 65.738281 32.929688 C 67.101562 33.277344 67.53125 33.6875 67.164062 34.28125 C 66.675781 35.078125 64.996094 34.792969 64.480469 33.832031 C 64.394531 33.671875 64.320312 33.539062 64.308594 33.539062 C 64.285156 33.539062 63.261719 33.96875 63.242188 33.988281 C 63.15625 34.074219 63.667969 34.847656 64.007812 35.144531 C 65.449219 36.425781 68.164062 35.851562 68.507812 34.195312 C 68.753906 33.007812 68.054688 32.296875 66.160156 31.808594 C 64.765625 31.449219 64.496094 31.230469 64.765625 30.675781 C 65.160156 29.859375 66.753906 30.03125 67.332031 30.953125 C 67.375 31.019531 67.441406 31.003906 67.894531 30.808594 C 68.519531 30.535156 68.488281 30.566406 68.359375 30.3125 C 67.917969 29.445312 66.644531 28.90625 65.4375 29.070312 M 59.734375 30.300781 C 60.835938 30.683594 61.398438 32.160156 60.921875 33.398438 C 60.140625 35.417969 57.503906 35 57.167969 32.804688 C 56.917969 31.15625 58.308594 29.796875 59.734375 30.300781 "></path><path style=" stroke:none;fill-rule:evenodd;fill:rgb(97.254902%,73.72549%,1.568627%);fill-opacity:1;" d="M 16.011719 18.800781 C 14.375 21.632812 12.511719 24.871094 11.867188 25.996094 C 11.222656 27.117188 10.585938 28.214844 10.457031 28.4375 C 10.152344 28.945312 10.175781 28.960938 10.613281 28.539062 C 11.578125 27.613281 12.707031 27.148438 13.988281 27.148438 C 17.25 27.148438 19.492188 30.148438 18.621094 33.339844 C 18.566406 33.53125 18.535156 33.699219 18.546875 33.710938 C 18.554688 33.722656 19.1875 32.65625 19.949219 31.339844 C 20.710938 30.027344 21.859375 28.042969 22.5 26.9375 L 23.667969 24.925781 L 23.421875 24.488281 C 23.285156 24.246094 22.328125 22.578125 21.292969 20.78125 C 20.253906 18.984375 19.355469 17.40625 19.289062 17.273438 C 18.789062 16.269531 18.667969 14.984375 18.964844 13.875 C 18.996094 13.769531 19.007812 13.675781 19 13.667969 C 18.988281 13.65625 17.644531 15.964844 16.011719 18.800781 "></path><path style=" stroke:none;fill-rule:evenodd;fill:rgb(20.784314%,66.666667%,32.156863%);fill-opacity:1;" d="M 18.785156 15.113281 C 18.785156 15.21875 18.792969 15.253906 18.804688 15.195312 C 18.816406 15.136719 18.816406 15.046875 18.804688 15.003906 C 18.792969 14.957031 18.78125 15.003906 18.785156 15.113281 M 13.011719 27.242188 C 12.09375 27.4375 11.332031 27.851562 10.617188 28.539062 C 10.421875 28.722656 10.25 28.878906 10.234375 28.878906 C 10.191406 28.878906 9.789062 29.546875 9.605469 29.917969 C 8.371094 32.425781 9.734375 35.660156 12.386719 36.53125 C 15.941406 37.699219 19.234375 34.992188 18.769531 31.285156 C 18.429688 28.5625 15.722656 26.660156 13.011719 27.242188 "></path><path style=" stroke:none;fill-rule:evenodd;fill:rgb(23.529412%,54.901961%,86.27451%);fill-opacity:1;" d="M 23.117188 10.316406 C 20.34375 10.660156 18.464844 13.109375 18.863281 15.851562 C 19.003906 16.800781 19.003906 16.808594 21.46875 21.070312 C 22.535156 22.917969 23.472656 24.550781 23.546875 24.695312 C 23.621094 24.84375 23.707031 25.015625 23.742188 25.082031 C 23.796875 25.191406 28.605469 33.550781 29.058594 34.332031 C 31.539062 38.574219 37.917969 37.035156 38.105469 32.144531 C 38.160156 30.71875 38.15625 30.714844 35.074219 25.347656 C 33.675781 22.914062 31.679688 19.433594 30.628906 17.609375 C 29.582031 15.785156 28.542969 13.96875 28.324219 13.574219 C 27.554688 12.195312 27.050781 11.585938 26.257812 11.070312 C 25.382812 10.5 24.105469 10.191406 23.117188 10.316406 "></path></g></svg>