<svg xmlns="http://www.w3.org/2000/svg" width="88" height="48" viewBox="0 0 88 48">
  <g id="google-analytics" transform="translate(-1000.402 -205)">
    <rect id="Rectangle_6698" data-name="Rectangle 6698" width="88" height="48" transform="translate(1000.402 205)" opacity="0"/>
    <g id="svgexport-1" transform="translate(1006.401 216)">
      <g id="g6562" transform="translate(26.884 0.023)">
        <path id="path6536" d="M70.675,25.784a3.34,3.34,0,1,1-3.34-3.329A3.288,3.288,0,0,1,70.675,25.784Zm-1.462,0A1.882,1.882,0,1,0,67.336,27.8,1.917,1.917,0,0,0,69.213,25.784Z" transform="translate(-53.356 -18.773)" fill="#fff"/>
        <path id="path6538" d="M113.788,25.784a3.34,3.34,0,1,1-3.34-3.329A3.288,3.288,0,0,1,113.788,25.784Zm-1.462,0a1.882,1.882,0,1,0-1.878,2.017A1.917,1.917,0,0,0,112.326,25.784Z" transform="translate(-89.265 -18.773)" fill="#fff"/>
        <path id="path6540" d="M156.586,22.656v5.977c0,2.458-1.45,3.463-3.164,3.463a3.17,3.17,0,0,1-2.951-1.962l1.273-.53a1.839,1.839,0,0,0,1.677,1.181c1.1,0,1.777-.677,1.777-1.951v-.479h-.051a2.267,2.267,0,0,1-1.753.756,3.331,3.331,0,0,1,0-6.657,2.307,2.307,0,0,1,1.753.744h.051v-.542h1.388ZM155.3,25.8a1.875,1.875,0,0,0-1.777-2.029,2.024,2.024,0,0,0,0,4.034A1.86,1.86,0,0,0,155.3,25.8Z" transform="translate(-125.159 -18.773)" fill="#fff"/>
        <path id="path6542" d="M194.986,2.695V12.45H193.56V2.695Z" transform="translate(-161.27 -2.315)" fill="#fff"/>
        <path id="path6544" d="M210.709,26.872l1.135.756A3.314,3.314,0,0,1,209.07,29.1a3.257,3.257,0,0,1-3.3-3.329,3.163,3.163,0,0,1,3.14-3.329,3.092,3.092,0,0,1,2.849,2.118l.152.378-4.45,1.843a1.694,1.694,0,0,0,1.613,1.009A1.9,1.9,0,0,0,210.709,26.872Zm-3.493-1.2,2.975-1.235a1.289,1.289,0,0,0-1.235-.705A1.826,1.826,0,0,0,207.216,25.674Z" transform="translate(-171.436 -18.766)" fill="#fff"/>
        <path id="path6546" d="M5.566,6.567V5.155h4.759a4.68,4.68,0,0,1,.071.853,4.664,4.664,0,0,1-1.223,3.3,4.727,4.727,0,0,1-3.605,1.45A5.242,5.242,0,0,1,.323,5.591,5.242,5.242,0,0,1,5.568.422,4.925,4.925,0,0,1,9.11,1.847l-1,1A3.6,3.6,0,0,0,5.566,1.835,3.708,3.708,0,0,0,1.859,5.591,3.708,3.708,0,0,0,5.566,9.348a3.458,3.458,0,0,0,2.61-1.034,2.927,2.927,0,0,0,.765-1.749Z" transform="translate(-0.323 -0.422)" fill="#fff"/>
      </g>
      <g id="g6607" transform="translate(26.783 14.095)">
        <g id="use3812" transform="translate(0 0.095)">
          <path id="path1196" d="M4.927-52.34,3.461-48.286h2.99L4.974-52.34ZM2.2-44.775H.92L4.3-53.758H5.612l3.381,8.983H7.716L6.853-47.21H3.071Zm0,0" transform="translate(-0.92 53.758)" fill="#fff"/>
        </g>
        <g id="use3814" transform="translate(8.655 2.73)">
          <path id="path1199" d="M4.173-37.783H5.284v.851h.047a1.993,1.993,0,0,1,.8-.745,2.324,2.324,0,0,1,1.135-.307,2.26,2.26,0,0,1,1.738.65A2.547,2.547,0,0,1,9.622-35.5v3.865H8.464v-3.782a1.357,1.357,0,0,0-1.513-1.513,1.45,1.45,0,0,0-1.158.567,2.013,2.013,0,0,0-.461,1.324v3.4H4.173Zm0,0" transform="translate(-4.173 37.984)" fill="#fff"/>
        </g>
        <g id="use3818" transform="translate(15.048 2.73)">
          <path id="path1202" d="M3.316-33.516a.931.931,0,0,0,.378.756,1.4,1.4,0,0,0,.9.3A1.837,1.837,0,0,0,5.881-33a1.7,1.7,0,0,0,.579-1.277A2.4,2.4,0,0,0,4.947-34.7a1.939,1.939,0,0,0-1.17.343A1,1,0,0,0,3.316-33.516Zm1.489-4.468a2.837,2.837,0,0,1,2.009.686,2.431,2.431,0,0,1,.745,1.879v3.782H6.46v-.851H6.413A2.217,2.217,0,0,1,4.5-31.436a2.478,2.478,0,0,1-1.7-.6,1.931,1.931,0,0,1-.674-1.5,1.807,1.807,0,0,1,.721-1.513A3.026,3.026,0,0,1,4.77-35.62a3.493,3.493,0,0,1,1.69.366v-.26a1.292,1.292,0,0,0-.485-1.017,1.609,1.609,0,0,0-1.111-.426,1.747,1.747,0,0,0-1.525.816l-1.017-.638A2.826,2.826,0,0,1,4.805-37.984Zm0,0" transform="translate(-2.122 37.984)" fill="#fff"/>
        </g>
        <g id="use3820" transform="translate(21.743 0.095)">
          <path id="path1205" d="M5.332-53.758v8.983H4.173v-8.983Zm0,0" transform="translate(-4.173 53.758)" fill="#fff"/>
        </g>
        <g id="use3822" transform="translate(23.565 2.931)">
          <path id="path1208" d="M6.429-36.782,2.576-27.929H1.394l1.43-3.1L.283-36.782H1.536l1.832,4.421h.024l1.785-4.421Zm0,0" transform="translate(-0.283 36.782)" fill="#fff"/>
        </g>
        <g id="use3826" transform="translate(30.048 1.052)">
          <path id="path1211" d="M4.605-39.908a1.754,1.754,0,0,1-1.241-.461,1.7,1.7,0,0,1-.508-1.288V-45.1H1.768v-1.052H2.856v-1.879H4v1.879H5.515V-45.1H4v3.061a1.135,1.135,0,0,0,.236.839.816.816,0,0,0,.544.213,1.369,1.369,0,0,0,.272-.024A2.22,2.22,0,0,0,5.3-41.09l.355,1.028A3.316,3.316,0,0,1,4.605-39.908Zm0,0" transform="translate(-1.768 48.029)" fill="#fff"/>
        </g>
        <g id="use3830" transform="translate(34.69 0)">
          <path id="path1214" d="M5.026-53.508a.792.792,0,0,1-.248.579.772.772,0,0,1-.567.236.775.775,0,0,1-.579-.236.8.8,0,0,1-.236-.579.785.785,0,0,1,.236-.579.787.787,0,0,1,.579-.236.784.784,0,0,1,.567.236A.773.773,0,0,1,5.026-53.508ZM4.79-51.393v6.146H3.632v-6.146Zm0,0" transform="translate(-3.395 54.324)" fill="#fff"/>
        </g>
        <g id="use3834" transform="translate(36.819 2.73)">
          <path id="path1217" d="M5.278-31.436a3.006,3.006,0,0,1-2.269-.934,3.288,3.288,0,0,1-.886-2.34,3.239,3.239,0,0,1,.886-2.34,3.017,3.017,0,0,1,2.269-.934,2.879,2.879,0,0,1,1.643.473,2.94,2.94,0,0,1,1.052,1.3l-1.052.437a1.73,1.73,0,0,0-1.714-1.158,1.789,1.789,0,0,0-1.371.638,2.3,2.3,0,0,0-.567,1.584,2.294,2.294,0,0,0,.567,1.584,1.789,1.789,0,0,0,1.371.638A1.793,1.793,0,0,0,6.98-33.646l1.028.437a2.726,2.726,0,0,1-1.052,1.3A3.009,3.009,0,0,1,5.278-31.436Zm0,0" transform="translate(-2.122 37.984)" fill="#fff"/>
        </g>
        <g id="use3836" transform="translate(43.308 2.73)">
          <path id="path1220" d="M6.875-33.339a1.668,1.668,0,0,1-.709,1.359,2.794,2.794,0,0,1-1.761.544,2.829,2.829,0,0,1-1.631-.485,2.692,2.692,0,0,1-1-1.277L2.8-33.635a1.974,1.974,0,0,0,.662.863,1.592,1.592,0,0,0,.946.307,1.657,1.657,0,0,0,.922-.236.674.674,0,0,0,.378-.567c0-.393-.3-.68-.91-.863l-1.052-.26c-1.2-.307-1.8-.886-1.8-1.738a1.6,1.6,0,0,1,.686-1.347,2.869,2.869,0,0,1,1.749-.508,2.861,2.861,0,0,1,1.477.39,2.117,2.117,0,0,1,.922,1.04l-1.028.426a1.271,1.271,0,0,0-.579-.6,1.744,1.744,0,0,0-.875-.225,1.538,1.538,0,0,0-.816.225.655.655,0,0,0-.355.556c0,.349.331.6.993.756l.922.236Q6.873-34.731,6.875-33.339Zm0,0" transform="translate(-1.768 37.984)" fill="#fff"/>
        </g>
      </g>
      <g id="g6628" transform="translate(0 0)">
        <path id="path3806" d="M269.9,342.21v19.039a3.07,3.07,0,0,0,3.029,3.317,3.032,3.032,0,0,0,3.029-3.317V342.354a3.033,3.033,0,0,0-3.029-3.173A3.08,3.08,0,0,0,269.9,342.21Zm0,0" transform="translate(-254.03 -339.181)" fill="#f8ab00"/>
        <path id="path3808" d="M222.423,400.041v9.375a3.07,3.07,0,0,0,3.029,3.317,3.032,3.032,0,0,0,3.029-3.317v-9.231a3.033,3.033,0,0,0-3.029-3.173A3.08,3.08,0,0,0,222.423,400.041Zm0,0" transform="translate(-214.49 -387.348)" fill="#e37300"/>
        <path id="path3810" d="M181.007,457.872a3.029,3.029,0,1,1-3.029-3.029,3.03,3.03,0,0,1,3.029,3.029" transform="translate(-174.949 -435.516)" fill="#e37300"/>
      </g>
    </g>
  </g>
</svg>
