<svg xmlns="http://www.w3.org/2000/svg" xmlns:xlink="http://www.w3.org/1999/xlink" width="88" height="48" viewBox="0 0 88 48">
  <defs>
    <linearGradient id="linear-gradient" x1="-0.165" y1="1.062" x2="1.088" y2="0.12" gradientUnits="objectBoundingBox">
      <stop offset="0" stop-color="#e6ad10"/>
      <stop offset="1" stop-color="#c87e0e"/>
    </linearGradient>
    <linearGradient id="linear-gradient-2" x1="-0.054" y1="0.736" x2="1.001" y2="-0.232" gradientUnits="objectBoundingBox">
      <stop offset="0" stop-color="#f6d751"/>
      <stop offset="1" stop-color="#e6ad10"/>
    </linearGradient>
    <linearGradient id="linear-gradient-3" x1="0.174" y1="0.172" x2="0.755" y2="-0.805" gradientUnits="objectBoundingBox">
      <stop offset="0" stop-color="#f9e589"/>
      <stop offset="1" stop-color="#f6d751"/>
    </linearGradient>
  </defs>
  <g id="powerbi" transform="translate(-519.88 -204.613)">
    <rect id="Rectangle_6693" data-name="Rectangle 6693" width="88" height="48" transform="translate(519.88 204.613)" opacity="0"/>
    <g id="power-bi-vector-logo-2022" transform="translate(503.48 -21.087)">
      <path id="Path_23139" data-name="Path 23139" d="M208.222,292.964v3.928H207V286.5h2.861a3.83,3.83,0,0,1,2.588.806,2.9,2.9,0,0,1,.91,2.289,3.142,3.142,0,0,1-1.014,2.419,3.9,3.9,0,0,1-2.744.936h-1.379Zm0-5.358v4.266H209.5a2.882,2.882,0,0,0,1.925-.572,2.025,2.025,0,0,0,.663-1.626c0-1.366-.806-2.055-2.432-2.055h-1.431Zm9.481,9.468a3.457,3.457,0,0,1-2.627-1.04,3.861,3.861,0,0,1-.975-2.757,4,4,0,0,1,1.027-2.926,3.655,3.655,0,0,1,2.757-1.053,3.3,3.3,0,0,1,2.588,1.027,4.652,4.652,0,0,1-.065,5.683A3.517,3.517,0,0,1,217.7,297.073Zm.091-6.776a2.242,2.242,0,0,0-1.808.78,3.209,3.209,0,0,0-.663,2.146A2.992,2.992,0,0,0,216,295.3a2.31,2.31,0,0,0,1.808.767,2.178,2.178,0,0,0,1.769-.741,3.22,3.22,0,0,0,.624-2.12,3.3,3.3,0,0,0-.624-2.146A2.184,2.184,0,0,0,217.794,290.3Zm14.852-.819-2.224,7.426h-1.236l-1.535-5.306a4.738,4.738,0,0,1-.117-.689h-.026a3.014,3.014,0,0,1-.156.676l-1.665,5.332H224.5l-2.25-7.426H223.5l1.535,5.579a3.558,3.558,0,0,1,.1.663h.052a2.689,2.689,0,0,1,.13-.676l1.7-5.566h1.092l1.535,5.592a2.959,2.959,0,0,1,.1.663h.052a3.775,3.775,0,0,1,.117-.663l1.509-5.592h1.209Zm7.348,4.006h-5.241a2.759,2.759,0,0,0,.663,1.912,2.321,2.321,0,0,0,1.756.676,3.609,3.609,0,0,0,2.3-.832v1.118a4.329,4.329,0,0,1-2.588.715,3.123,3.123,0,0,1-2.471-1.014,4.156,4.156,0,0,1-.9-2.848,4.07,4.07,0,0,1,.975-2.822,3.139,3.139,0,0,1,2.432-1.092,2.786,2.786,0,0,1,2.25.936,3.9,3.9,0,0,1,.793,2.614v.637Zm-1.223-1.014a2.377,2.377,0,0,0-.494-1.6,1.7,1.7,0,0,0-1.353-.572,1.915,1.915,0,0,0-1.431.6,2.737,2.737,0,0,0-.728,1.574Zm6.88-1.795a1.476,1.476,0,0,0-.9-.234,1.509,1.509,0,0,0-1.275.715,3.336,3.336,0,0,0-.507,1.951v3.785h-1.183v-7.426h1.183V291H243a2.619,2.619,0,0,1,.78-1.222,1.823,1.823,0,0,1,1.17-.442,2.03,2.03,0,0,1,.715.1v1.236Zm5.527,6.216V286.5h2.952a3.2,3.2,0,0,1,2.133.663,2.16,2.16,0,0,1,.793,1.717,2.481,2.481,0,0,1-.481,1.535,2.613,2.613,0,0,1-1.314.923v.026a2.623,2.623,0,0,1,1.678.793,2.446,2.446,0,0,1,.624,1.743,2.722,2.722,0,0,1-.962,2.159,3.594,3.594,0,0,1-2.419.832Zm1.209-9.286v3.355h1.249a2.347,2.347,0,0,0,1.574-.481,1.7,1.7,0,0,0,.572-1.353c0-1.014-.663-1.509-1.99-1.509h-1.4Zm0,4.448V295.8h1.652a2.473,2.473,0,0,0,1.665-.507,1.751,1.751,0,0,0,.585-1.392c0-1.222-.832-1.847-2.51-1.847Zm8.505,4.838h-1.222V286.5h1.222Z" transform="translate(-161.463 -40.714)" fill="#fff"/>
      <path id="Path_23140" data-name="Path 23140" d="M94.67,240.584v19.365a.885.885,0,0,1-.884.884h-5.5a.885.885,0,0,1-.884-.884V240.584a.885.885,0,0,1,.884-.884h5.5A.9.9,0,0,1,94.67,240.584Z" transform="translate(-57.417 0)" fill="url(#linear-gradient)"/>
      <path id="Path_23141" data-name="Path 23141" d="M61.67,281.284v14.969H54.4V281.284a.885.885,0,0,1,.884-.884h5.5A.885.885,0,0,1,61.67,281.284Z" transform="translate(-28.708 -35.407)" fill="url(#linear-gradient-2)"/>
      <path id="Path_23142" data-name="Path 23142" d="M21.4,321.884v8.8a.885.885,0,0,0,.884.884H28.67v-9.689a.885.885,0,0,0-.884-.884h-5.5A.885.885,0,0,0,21.4,321.884Z" transform="translate(0 -70.727)" fill="url(#linear-gradient-3)"/>
    </g>
  </g>
</svg>
