<svg xmlns="http://www.w3.org/2000/svg" width="125.229" height="48" viewBox="0 0 125.229 48">
  <g id="prompthealth_color" transform="translate(17253 8345)">
    <rect id="Rectangle_7078" data-name="Rectangle 7078" width="125.229" height="48" transform="translate(-17253 -8345)" fill="#fff" opacity="0"/>
    <g id="prompt-logo" transform="translate(-17245 -8338)">
      <g id="Group_1" data-name="Group 1" transform="translate(64.421 13.858)">
        <path id="Path_1" data-name="Path 1" d="M830.015,748.429a.961.961,0,0,1,.681.28.919.919,0,0,1,.3.7v9.257a.91.91,0,0,1-.305.7,1.008,1.008,0,0,1-.7.28.946.946,0,0,1-.993-.975v-9.259a.93.93,0,0,1,.288-.7,1.014,1.014,0,0,1,.736-.279Zm-.047,4.659h7.142v1.842h-7.142Zm7.14-4.659a.946.946,0,0,1,.992.975v9.258a.947.947,0,0,1-.28.7,1.009,1.009,0,0,1-.744.28.963.963,0,0,1-.681-.28.918.918,0,0,1-.3-.7v-9.257a.9.9,0,0,1,.3-.7,1,1,0,0,1,.7-.279Z" transform="translate(-828.99 -748.428)" fill="#174b71"/>
        <path id="Path_2" data-name="Path 2" d="M914.385,777.265a4.7,4.7,0,0,1-2.363-.568,3.929,3.929,0,0,1-1.538-1.545,4.5,4.5,0,0,1-.532-2.209,4.848,4.848,0,0,1,.585-2.459,4.135,4.135,0,0,1,1.524-1.553,3.947,3.947,0,0,1,2-.545,3.642,3.642,0,0,1,1.544.336,4.222,4.222,0,0,1,1.288.92,4.478,4.478,0,0,1,.887,1.353,4.114,4.114,0,0,1,.328,1.633.823.823,0,0,1-.3.621,1.017,1.017,0,0,1-.672.24h-6.118l-.483-1.6h5.881l-.355.32v-.433a1.456,1.456,0,0,0-.328-.833,2.154,2.154,0,0,0-.737-.585,2.1,2.1,0,0,0-.936-.216,3.03,3.03,0,0,0-.9.129,1.723,1.723,0,0,0-.72.433,2.1,2.1,0,0,0-.48.816,4.029,4.029,0,0,0-.177,1.3,2.8,2.8,0,0,0,.361,1.465,2.464,2.464,0,0,0,2.138,1.226,3.743,3.743,0,0,0,.944-.1,2.1,2.1,0,0,0,.568-.232q.216-.136.392-.232a1.222,1.222,0,0,1,.545-.144.807.807,0,0,1,.818.8,1,1,0,0,1-.448.784,3.719,3.719,0,0,1-1.169.616A4.644,4.644,0,0,1,914.385,777.265Z" transform="translate(-899.877 -765.898)" fill="#174b71"/>
        <path id="Path_3" data-name="Path 3" d="M986.113,768.38a.936.936,0,0,1,.689.272.951.951,0,0,1,.272.7v6.774a.96.96,0,0,1-.272.7.989.989,0,0,1-1.379,0,.961.961,0,0,1-.272-.7v-.785l.355.145a.9.9,0,0,1-.224.5,3.052,3.052,0,0,1-.608.585,3.781,3.781,0,0,1-.9.489,3.128,3.128,0,0,1-1.128.2,3.657,3.657,0,0,1-2-.568,3.99,3.99,0,0,1-1.418-1.568,5.373,5.373,0,0,1,0-4.611,4.038,4.038,0,0,1,1.4-1.568,3.533,3.533,0,0,1,1.951-.568,3.724,3.724,0,0,1,1.265.208,3.762,3.762,0,0,1,1,.532,3.09,3.09,0,0,1,.657.648,1.036,1.036,0,0,1,.232.552l-.575.208v-1.169a.961.961,0,0,1,.272-.7A.915.915,0,0,1,986.113,768.38Zm-3.234,7.125a2.166,2.166,0,0,0,1.232-.355,2.384,2.384,0,0,0,.825-.96,3.062,3.062,0,0,0,.3-1.361,3.1,3.1,0,0,0-.3-1.378,2.385,2.385,0,0,0-.826-.96,2.168,2.168,0,0,0-1.232-.355,2.14,2.14,0,0,0-1.216.355,2.385,2.385,0,0,0-.825.96,3.1,3.1,0,0,0-.3,1.377,3.063,3.063,0,0,0,.3,1.361,2.375,2.375,0,0,0,.825.96,2.149,2.149,0,0,0,1.216.355Z" transform="translate(-960.075 -765.896)" fill="#174b71"/>
        <path id="Path_4" data-name="Path 4" d="M1059.511,759.05a.863.863,0,0,1-.28.655.976.976,0,0,1-.7.266.93.93,0,0,1-.672-.266.874.874,0,0,1-.272-.655v-9.322a.863.863,0,0,1,.28-.655.979.979,0,0,1,.7-.266.925.925,0,0,1,.68.266.9.9,0,0,1,.266.655Z" transform="translate(-1029.151 -748.761)" fill="#174b71"/>
        <path id="Path_5" data-name="Path 5" d="M1078.7,756.861h3.8a.875.875,0,0,1,.9.9.828.828,0,0,1-.256.616.886.886,0,0,1-.641.249H1078.7a.876.876,0,0,1-.9-.9.828.828,0,0,1,.256-.616A.886.886,0,0,1,1078.7,756.861Zm1.713-2a.893.893,0,0,1,.681.28.977.977,0,0,1,.266.7v7.128a.686.686,0,0,0,.089.368.5.5,0,0,0,.24.207.881.881,0,0,0,.681-.007.879.879,0,0,1,.368-.072.541.541,0,0,1,.408.208.863.863,0,0,1-.3,1.312,2.038,2.038,0,0,1-1.049.288,5.519,5.519,0,0,1-.744-.056,2.008,2.008,0,0,1-.769-.272,1.673,1.673,0,0,1-.6-.664,2.636,2.636,0,0,1-.241-1.233v-7.208a.957.957,0,0,1,.975-.975Z" transform="translate(-1046.847 -754.057)" fill="#174b71"/>
        <path id="Path_6" data-name="Path 6" d="M1134.935,751.236a2.7,2.7,0,0,1,1.754.5,2.517,2.517,0,0,1,.825,1.321,7,7,0,0,1,.225,1.834v4.1a.958.958,0,0,1-.272.7.989.989,0,0,1-1.379,0,.959.959,0,0,1-.272-.7v-4.1a3.274,3.274,0,0,0-.129-.952,1.305,1.305,0,0,0-.464-.681,1.56,1.56,0,0,0-.96-.256,2.011,2.011,0,0,0-1.042.256,1.652,1.652,0,0,0-.648.68,2.071,2.071,0,0,0-.216.952v4.1a.959.959,0,0,1-.272.7.989.989,0,0,1-1.379,0,.958.958,0,0,1-.272-.7v-9.209a.96.96,0,0,1,.272-.7.988.988,0,0,1,1.379,0,.956.956,0,0,1,.272.7v3.281l-.24-.049a3.521,3.521,0,0,1,.4-.585,3.43,3.43,0,0,1,.62-.585,3.3,3.3,0,0,1,.818-.443A2.787,2.787,0,0,1,1134.935,751.236Z" transform="translate(-1092.93 -748.753)" fill="#174b71"/>
      </g>
      <g id="Group_3" data-name="Group 3" transform="translate(16.072 13.96)">
        <g id="Group_2" data-name="Group 2" transform="translate(0 0)">
          <path id="Path_7" data-name="Path 7" d="M444.092,767.17a3.613,3.613,0,0,1,1.99.553,3.971,3.971,0,0,1,1.38,1.521,5.091,5.091,0,0,1,0,4.453,3.989,3.989,0,0,1-1.387,1.536,3.562,3.562,0,0,1-1.966.56,3.444,3.444,0,0,1-1.1-.177,3.737,3.737,0,0,1-.95-.471,3.668,3.668,0,0,1-.76-.7,3.527,3.527,0,0,1-.532-.887l.3-.215v5.142a.5.5,0,1,1-.99,0V767.717a.524.524,0,0,1,.131-.363.459.459,0,0,1,.363-.148.468.468,0,0,1,.355.148.512.512,0,0,1,.141.363V769.5l-.231-.131a2.863,2.863,0,0,1,.488-.917,3.332,3.332,0,0,1,1.694-1.132,3.75,3.75,0,0,1,1.072-.151Zm-.083.926a2.818,2.818,0,0,0-1.569.438,3.047,3.047,0,0,0-1.064,1.189,3.748,3.748,0,0,0-.388,1.743,3.861,3.861,0,0,0,.388,1.751,3.009,3.009,0,0,0,1.064,1.215,2.822,2.822,0,0,0,1.569.438,2.748,2.748,0,0,0,1.544-.438,3.092,3.092,0,0,0,1.064-1.215,3.8,3.8,0,0,0,.4-1.751,3.687,3.687,0,0,0-.4-1.736,3.134,3.134,0,0,0-1.064-1.2,2.748,2.748,0,0,0-1.544-.435Z" transform="translate(-440.076 -764.939)" fill="#174b71"/>
          <path id="Path_8" data-name="Path 8" d="M509.2,774.749a.46.46,0,0,1-.364-.15.5.5,0,0,1-.131-.348v-7.4a.492.492,0,0,1,.141-.348.5.5,0,0,1,.709,0,.493.493,0,0,1,.141.348v2.483l-.247.05a3.812,3.812,0,0,1,.288-1.153,3.943,3.943,0,0,1,.652-1.049,3.284,3.284,0,0,1,.983-.777,2.728,2.728,0,0,1,1.28-.3,1.411,1.411,0,0,1,.579.124.419.419,0,0,1,.28.4.51.51,0,0,1-.131.38.429.429,0,0,1-.314.131.76.76,0,0,1-.322-.083,1.072,1.072,0,0,0-.454-.083,1.811,1.811,0,0,0-.926.272,3.17,3.17,0,0,0-.84.736,3.813,3.813,0,0,0-.6,1.032,3.116,3.116,0,0,0-.224,1.153v4.078a.508.508,0,0,1-.495.495Z" transform="translate(-500.168 -764.01)" fill="#174b71"/>
          <path id="Path_9" data-name="Path 9" d="M549.458,770.521a4.572,4.572,0,0,1-.553,2.256,4.145,4.145,0,0,1-1.5,1.569,4.256,4.256,0,0,1-4.256,0,4.109,4.109,0,0,1-1.5-1.568,4.886,4.886,0,0,1,0-4.522,4.122,4.122,0,0,1,7.252,0,4.55,4.55,0,0,1,.556,2.266Zm-.99,0a3.8,3.8,0,0,0-.413-1.793,3.206,3.206,0,0,0-1.132-1.241,3.173,3.173,0,0,0-3.271,0,3.27,3.27,0,0,0-1.139,1.241,3.729,3.729,0,0,0-.422,1.793,3.677,3.677,0,0,0,.422,1.784,3.273,3.273,0,0,0,1.139,1.232,2.972,2.972,0,0,0,1.627.454,3.014,3.014,0,0,0,1.644-.454,3.213,3.213,0,0,0,1.132-1.232A3.745,3.745,0,0,0,548.467,770.521Z" transform="translate(-528.527 -764.01)" fill="#174b71"/>
          <path id="Path_10" data-name="Path 10" d="M617.166,767.169a2.858,2.858,0,0,1,1.75.537,2.723,2.723,0,0,1,.991,1.6l-.231.065.1-.3a2.625,2.625,0,0,1,.719-.933,4.092,4.092,0,0,1,1.153-.7,3.4,3.4,0,0,1,1.305-.266,2.862,2.862,0,0,1,1.677.448,2.539,2.539,0,0,1,.926,1.2,4.69,4.69,0,0,1,.288,1.693v4.675a.5.5,0,1,1-.99,0v-4.627a3.444,3.444,0,0,0-.215-1.241,1.9,1.9,0,0,0-.677-.892,2.092,2.092,0,0,0-1.241-.331,2.716,2.716,0,0,0-1.3.331,2.812,2.812,0,0,0-1.008.892,2.128,2.128,0,0,0-.388,1.241v4.627a.5.5,0,1,1-.99,0v-4.678a3.568,3.568,0,0,0-.2-1.223,1.8,1.8,0,0,0-.645-.867,2.025,2.025,0,0,0-1.206-.322,2.673,2.673,0,0,0-1.28.322,2.7,2.7,0,0,0-.975.867,2.124,2.124,0,0,0-.372,1.223v4.675a.51.51,0,0,1-.5.5.459.459,0,0,1-.363-.15.5.5,0,0,1-.132-.348v-7.4a.493.493,0,0,1,.141-.347.5.5,0,0,1,.709,0,.492.492,0,0,1,.141.348v1.535l-.448.611a2.6,2.6,0,0,1,.322-.991,3.336,3.336,0,0,1,.719-.892,3.6,3.6,0,0,1,1.017-.636,3.034,3.034,0,0,1,1.2-.237Z" transform="translate(-591.807 -764.937)" fill="#174b71"/>
          <path id="Path_11" data-name="Path 11" d="M727.173,767.17a3.615,3.615,0,0,1,1.991.553,3.972,3.972,0,0,1,1.379,1.521,5.09,5.09,0,0,1,0,4.453,3.99,3.99,0,0,1-1.387,1.536,3.564,3.564,0,0,1-1.966.56,3.444,3.444,0,0,1-1.1-.177,3.733,3.733,0,0,1-.949-.471,3.668,3.668,0,0,1-.76-.7,3.521,3.521,0,0,1-.532-.886l.3-.216v5.142a.5.5,0,1,1-.99,0V767.717a.525.525,0,0,1,.131-.364.459.459,0,0,1,.363-.148.468.468,0,0,1,.355.148.512.512,0,0,1,.141.364V769.5l-.231-.131a2.858,2.858,0,0,1,.488-.917,3.333,3.333,0,0,1,1.693-1.132,3.747,3.747,0,0,1,1.072-.151Zm-.083.926a2.818,2.818,0,0,0-1.569.438,3.044,3.044,0,0,0-1.064,1.189,3.75,3.75,0,0,0-.388,1.743,3.867,3.867,0,0,0,.388,1.751,3.009,3.009,0,0,0,1.064,1.215,2.822,2.822,0,0,0,1.569.438,2.748,2.748,0,0,0,1.544-.438,3.091,3.091,0,0,0,1.064-1.215,3.8,3.8,0,0,0,.4-1.751,3.685,3.685,0,0,0-.4-1.736,3.134,3.134,0,0,0-1.064-1.2,2.75,2.75,0,0,0-1.544-.437Z" transform="translate(-687.938 -764.939)" fill="#174b71"/>
          <path id="Path_12" data-name="Path 12" d="M784.039,751.57h3.849a.438.438,0,0,1,.331.141.474.474,0,0,1,.131.336.423.423,0,0,1-.131.314.447.447,0,0,1-.331.131h-3.849a.462.462,0,0,1-.336-.141.444.444,0,0,1-.141-.322.438.438,0,0,1,.141-.331A.478.478,0,0,1,784.039,751.57Zm1.7-2.33a.469.469,0,0,1,.355.148.494.494,0,0,1,.141.348v8.294a1.508,1.508,0,0,0,.124.694.621.621,0,0,0,.322.306,1.117,1.117,0,0,0,.4.074.675.675,0,0,0,.24-.041.668.668,0,0,1,.24-.041.336.336,0,0,1,.256.116.423.423,0,0,1,.107.3.454.454,0,0,1-.266.388,1.21,1.21,0,0,1-.629.157c-.1,0-.247-.009-.448-.025a1.675,1.675,0,0,1-.611-.177,1.211,1.211,0,0,1-.52-.553,2.52,2.52,0,0,1-.206-1.139v-8.35a.494.494,0,0,1,.141-.347.448.448,0,0,1,.355-.15Z" transform="translate(-740.826 -749.239)" fill="#174b71"/>
        </g>
      </g>
      <g id="Group_4" data-name="Group 4" transform="translate(0 0)">
        <circle id="Ellipse_1" data-name="Ellipse 1" cx="1.779" cy="1.779" r="1.779" transform="translate(10.678 13.869)" fill="#78aa41"/>
        <circle id="Ellipse_2" data-name="Ellipse 2" cx="3.559" cy="3.559" r="3.559" transform="translate(3.558 15.499)" fill="#174b71"/>
        <circle id="Ellipse_3" data-name="Ellipse 3" cx="7.117" cy="7.117" r="7.117" transform="translate(0 0)" fill="#3c97d3"/>
      </g>
    </g>
  </g>
</svg>
