<svg xmlns="http://www.w3.org/2000/svg" width="88" height="48" viewBox="0 0 88 48">
  <g id="salesforce" transform="translate(-135.664 -204.862)">
    <rect id="Rectangle_6689" data-name="Rectangle 6689" width="88" height="48" transform="translate(135.664 204.862)" opacity="0"/>
    <g id="Group_13486" data-name="Group 13486" transform="translate(154.983 210.861)">
      <path id="Path_23135" data-name="Path 23135" d="M20.5,4.352a8.736,8.736,0,0,1,6.319-2.711A8.825,8.825,0,0,1,34.511,6.2a10.623,10.623,0,0,1,4.341-.925,10.843,10.843,0,1,1-2.125,21.475A7.851,7.851,0,0,1,26.434,29.99a8.956,8.956,0,0,1-16.648-.4,8.26,8.26,0,0,1-1.711.178A8.364,8.364,0,0,1-.24,21.358a8.448,8.448,0,0,1,4.158-7.289A9.68,9.68,0,0,1,20.5,4.362" fill="#00a1e0" fill-rule="evenodd"/>
      <path id="Path_23136" data-name="Path 23136" d="M39.349,81.138c-.031.082.011.1.021.113a3.151,3.151,0,0,0,.284.172,3.044,3.044,0,0,0,1.491.348c1.022,0,1.658-.544,1.658-1.419v-.017c0-.81-.718-1.1-1.388-1.315l-.088-.028c-.507-.164-.945-.308-.945-.641v-.017c0-.286.256-.5.652-.5a2.953,2.953,0,0,1,1.3.332s.1.064.135-.032c.02-.052.19-.509.209-.56a.1.1,0,0,0-.05-.115,2.894,2.894,0,0,0-1.465-.394h-.1a1.429,1.429,0,0,0-1.59,1.375v.017c0,.853.722,1.132,1.4,1.324l.108.034c.491.151.916.282.916.626v.017c0,.317-.277.553-.72.553a2.414,2.414,0,0,1-1.317-.379c-.072-.042-.113-.072-.169-.106a.082.082,0,0,0-.134.046l-.2.56m14.963,0c-.031.082.011.1.022.113a3.1,3.1,0,0,0,.284.172,3.044,3.044,0,0,0,1.491.348c1.022,0,1.658-.544,1.658-1.419v-.017c0-.81-.716-1.1-1.388-1.315l-.088-.028c-.507-.164-.945-.308-.945-.641v-.017c0-.286.256-.5.652-.5a2.96,2.96,0,0,1,1.3.332s.1.064.136-.032c.019-.052.19-.509.207-.56a.1.1,0,0,0-.049-.115,2.9,2.9,0,0,0-1.465-.394h-.1a1.429,1.429,0,0,0-1.59,1.375v.017c0,.853.722,1.132,1.4,1.324l.108.034c.493.151.916.282.916.626v.017c0,.317-.277.553-.72.553a2.409,2.409,0,0,1-1.317-.379c-.072-.042-.114-.071-.169-.106a.087.087,0,0,0-.134.046l-.2.56m10.22-1.714a2.121,2.121,0,0,1-.273,1.161,1.051,1.051,0,0,1-1.659,0,2.627,2.627,0,0,1,0-2.317.908.908,0,0,1,.828-.4.919.919,0,0,1,.832.4,2.082,2.082,0,0,1,.273,1.156m.853-.918A2.061,2.061,0,0,0,65,77.763a1.859,1.859,0,0,0-.656-.5,2.381,2.381,0,0,0-1.832,0,1.883,1.883,0,0,0-.656.5,2.07,2.07,0,0,0-.388.742,3.414,3.414,0,0,0,0,1.835,2.055,2.055,0,0,0,.388.742,1.845,1.845,0,0,0,.656.495,2.426,2.426,0,0,0,1.83,0,1.839,1.839,0,0,0,.656-.495,2.067,2.067,0,0,0,.388-.742,3.418,3.418,0,0,0,0-1.835M72.4,80.85a.081.081,0,0,0-.109-.052,1.959,1.959,0,0,1-.4.113,3.041,3.041,0,0,1-.467.034,1.3,1.3,0,0,1-.976-.366,1.627,1.627,0,0,1-.366-1.167,1.811,1.811,0,0,1,.328-1.125,1.116,1.116,0,0,1,.947-.418,2.864,2.864,0,0,1,.9.129s.067.029.1-.059c.075-.207.13-.355.211-.582a.077.077,0,0,0-.053-.1,3.323,3.323,0,0,0-.57-.144,4.3,4.3,0,0,0-.641-.043,2.322,2.322,0,0,0-.951.183,1.967,1.967,0,0,0-.687.5,2.117,2.117,0,0,0-.416.742,2.949,2.949,0,0,0-.139.919,2.459,2.459,0,0,0,.568,1.7,2.156,2.156,0,0,0,1.685.634,3.46,3.46,0,0,0,1.209-.216.078.078,0,0,0,.035-.1L72.4,80.85m1.493-1.9a1.662,1.662,0,0,1,.234-.681.92.92,0,0,1,.826-.419.9.9,0,0,1,.81.419,1.415,1.415,0,0,1,.19.681h-2.07Zm2.875-.6a1.81,1.81,0,0,0-.37-.676,1.688,1.688,0,0,0-.549-.418,2.106,2.106,0,0,0-.828-.168,2.272,2.272,0,0,0-.954.185,1.9,1.9,0,0,0-.665.507,2.087,2.087,0,0,0-.392.751,3.246,3.246,0,0,0-.127.921,3.116,3.116,0,0,0,.131.923,1.857,1.857,0,0,0,1.147,1.216,2.9,2.9,0,0,0,1.049.17,3,3,0,0,0,1.454-.289c.032-.018.062-.049.025-.138L76.5,80.8a.084.084,0,0,0-.109-.05,2.767,2.767,0,0,1-1.187.214,1.182,1.182,0,0,1-1.324-1.3l2.894,0a.085.085,0,0,0,.084-.075,3.091,3.091,0,0,0-.086-1.244Zm-26.008.6a1.665,1.665,0,0,1,.234-.681.92.92,0,0,1,.826-.419.9.9,0,0,1,.81.419,1.419,1.419,0,0,1,.19.681h-2.07Zm2.875-.6a1.808,1.808,0,0,0-.37-.676,1.688,1.688,0,0,0-.549-.418,2.106,2.106,0,0,0-.828-.168,2.272,2.272,0,0,0-.954.185,1.9,1.9,0,0,0-.665.507,2.093,2.093,0,0,0-.392.751,3.253,3.253,0,0,0-.126.921,3.1,3.1,0,0,0,.131.923,1.849,1.849,0,0,0,1.145,1.216,2.89,2.89,0,0,0,1.049.17,3,3,0,0,0,1.454-.289c.032-.018.062-.049.024-.138l-.189-.529a.084.084,0,0,0-.109-.05,2.767,2.767,0,0,1-1.187.214,1.182,1.182,0,0,1-1.324-1.3l2.894,0a.085.085,0,0,0,.084-.075,3.089,3.089,0,0,0-.086-1.244Zm-9.121,2.491a.564.564,0,0,1-.167-.171.691.691,0,0,1-.087-.375.632.632,0,0,1,.258-.559,1.3,1.3,0,0,1,.839-.209,5.86,5.86,0,0,1,.784.067V80.9h0a5.837,5.837,0,0,1-.78.1,1.3,1.3,0,0,1-.846-.169Zm1.15-2.033c-.117-.009-.269-.013-.451-.013a2.728,2.728,0,0,0-.711.091,1.853,1.853,0,0,0-.6.28,1.348,1.348,0,0,0-.574,1.143,1.506,1.506,0,0,0,.132.659,1.2,1.2,0,0,0,.377.452,1.581,1.581,0,0,0,.588.255,3.457,3.457,0,0,0,.766.078,5.289,5.289,0,0,0,.877-.073q.365-.063.727-.141c.1-.022.2-.051.2-.051a.091.091,0,0,0,.066-.095l0-2.637a1.614,1.614,0,0,0-.46-1.275,1.964,1.964,0,0,0-1.326-.4,4.762,4.762,0,0,0-.775.071,2.782,2.782,0,0,0-.89.326.09.09,0,0,0-.026.115l.205.549a.073.073,0,0,0,.095.047.371.371,0,0,0,.047-.024,2.931,2.931,0,0,1,1.258-.293,1.168,1.168,0,0,1,.714.187c.158.121.238.3.238.689v.122c-.247-.036-.476-.057-.476-.057Zm23.26-1.489a.078.078,0,0,0-.043-.1,2.544,2.544,0,0,0-.484-.082,1.433,1.433,0,0,0-.745.12,1.281,1.281,0,0,0-.487.361v-.352a.083.083,0,0,0-.083-.087h-.74a.084.084,0,0,0-.083.087v4.3a.088.088,0,0,0,.088.088H67.1a.088.088,0,0,0,.088-.088V79.395a2.534,2.534,0,0,1,.1-.758,1.087,1.087,0,0,1,.253-.425A.877.877,0,0,1,67.9,78a1.406,1.406,0,0,1,.388-.055,1.623,1.623,0,0,1,.317.039c.056.006.087-.028.105-.078.05-.132.19-.527.218-.606" transform="translate(-32.329 -62.5)" fill="#fffffe" fill-rule="evenodd"/>
      <path id="Path_23137" data-name="Path 23137" d="M100.478,67.11a2.429,2.429,0,0,0-.286-.068,2.238,2.238,0,0,0-.393-.03,1.654,1.654,0,0,0-1.224.439A2.387,2.387,0,0,0,98,68.761l-.035.2H97.3a.1.1,0,0,0-.1.084l-.108.6c-.008.058.017.093.094.093h.638l-.648,3.616a4.54,4.54,0,0,1-.173.712,1.461,1.461,0,0,1-.2.411.536.536,0,0,1-.264.2,1.071,1.071,0,0,1-.34.049,1.316,1.316,0,0,1-.232-.025.689.689,0,0,1-.156-.051.08.08,0,0,0-.1.047c-.024.061-.194.529-.214.587a.086.086,0,0,0,.045.115,2.156,2.156,0,0,0,.264.077,1.744,1.744,0,0,0,.423.04,2.112,2.112,0,0,0,.709-.11,1.328,1.328,0,0,0,.534-.373,1.916,1.916,0,0,0,.375-.646,5.517,5.517,0,0,0,.254-.971l.651-3.683h.952a.1.1,0,0,0,.1-.084l.108-.6c.008-.058-.017-.093-.094-.093h-.924a3.92,3.92,0,0,1,.153-.652.839.839,0,0,1,.2-.308.6.6,0,0,1,.242-.151,1,1,0,0,1,.31-.045,1.206,1.206,0,0,1,.237.024c.09.019.124.029.148.036.094.029.107,0,.125-.045l.221-.607a.077.077,0,0,0-.053-.1M87.571,73.358a.084.084,0,0,1-.083.088h-.766a.084.084,0,0,1-.083-.088V67.192a.083.083,0,0,1,.083-.087h.766a.083.083,0,0,1,.083.087v6.166" transform="translate(-70.967 -54.287)" fill="#fffffe" fill-rule="evenodd"/>
    </g>
  </g>
</svg>
