<svg xmlns="http://www.w3.org/2000/svg" width="150" height="48" viewBox="0 0 150 48">
  <g id="slocoach_color" transform="translate(17413 8342)">
    <rect id="Rectangle_7079" data-name="Rectangle 7079" width="150" height="48" transform="translate(-17413 -8342)" fill="#fff" opacity="0"/>
    <g id="Layer_1" data-name="Layer 1" transform="translate(-17405 -8327)">
      <path id="Path_23671" data-name="Path 23671" d="M9.744,4.619a3.648,3.648,0,0,0-2.73-1.135c-1.065,0-2.539.482-2.539,1.763,0,3.118,7.885,1.109,7.885,7.11,0,3.819-3.072,5.634-6.6,5.634A8.132,8.132,0,0,1,0,15.838L2.677,12.89a4.2,4.2,0,0,0,3.29,1.619c1.232,0,2.61-.583,2.61-1.79C8.576,9.577.546,11.27.546,5.561.556,1.912,3.725,0,7.083,0a7.723,7.723,0,0,1,5.25,1.79Z" transform="translate(0 0.005)" fill="#111"/>
      <path id="Path_23672" data-name="Path 23672" d="M45.74,1.3h3.77V14.939H56.5v3.479H45.74Z" transform="translate(-30.435 -0.859)" fill="#111"/>
      <path id="Path_23673" data-name="Path 23673" d="M90.64,0c5.353,0,9.24,3.506,9.24,8.994s-3.9,8.994-9.24,8.994S81.4,14.482,81.4,8.994,85.281,0,90.64,0Zm0,14.509a5.175,5.175,0,0,0,5.315-5.515,5.324,5.324,0,1,0-10.64,0,5.164,5.164,0,0,0,5.325,5.515Z" transform="translate(-54.232 0.006)" fill="#111"/>
      <path id="Path_23674" data-name="Path 23674" d="M153.6,4.886a4.015,4.015,0,0,0-3.243-1.4c-2.855,0-4.955,2.319-4.955,5.511s2.1,5.515,4.835,5.515a4.092,4.092,0,0,0,3.53-1.837l3.142,2.341a7.471,7.471,0,0,1-6.19,2.974c-5.353,0-9.24-3.506-9.24-8.994S145.37,0,150.715,0A7.419,7.419,0,0,1,156.5,2.515Z" transform="translate(-94.258 0.005)" fill="#111"/>
      <path id="Path_23675" data-name="Path 23675" d="M200.232,0c5.353,0,9.24,3.506,9.24,8.994s-3.892,8.994-9.24,8.994S191,14.485,191,8.994,194.888,0,200.232,0Zm0,14.509a5.167,5.167,0,0,0,5.32-5.515,5.323,5.323,0,1,0-10.638,0,5.175,5.175,0,0,0,5.318,5.515Z" transform="translate(-127.254 0.006)" fill="#111"/>
      <path id="Path_23676" data-name="Path 23676" d="M255.981,1.3h3.112l7.448,17.118h-4.249l-1.478-3.627H254.16l-1.432,3.627H248.58Zm1.439,4.982-2.078,5.32h4.183Z" transform="translate(-165.615 -0.859)" fill="#111"/>
      <path id="Path_23677" data-name="Path 23677" d="M316.774,4.886a4.016,4.016,0,0,0-3.239-1.4c-2.855,0-4.955,2.319-4.955,5.511s2.1,5.515,4.835,5.515a4.092,4.092,0,0,0,3.53-1.837l3.142,2.341a7.471,7.471,0,0,1-6.19,2.974c-5.353,0-9.241-3.506-9.241-8.994S308.547,0,313.9,0a7.392,7.392,0,0,1,5.782,2.516Z" transform="translate(-203.015 0.005)" fill="#111"/>
      <path id="Path_23678" data-name="Path 23678" d="M356.91,1.3h3.771V7.685h7.328V1.3h3.771V18.418H368.01V11.026h-7.328v7.392H356.91Z" transform="translate(-237.781 -0.859)" fill="#111"/>
    </g>
  </g>
</svg>
